<svg width="16" height="16" viewBox="0 0 16 16" fill="none" xmlns="http://www.w3.org/2000/svg">
<path d="M11.1296 3.30556L15.2686 7.44449C15.3419 7.51723 15.4001 7.60376 15.4398 7.6991C15.4796 7.79445 15.5 7.89671 15.5 8C15.5 8.10329 15.4796 8.20555 15.4398 8.3009C15.4001 8.39624 15.3419 8.48277 15.2686 8.55551L12.6944 11.1296L8 6.43518L11.1296 3.30556ZM0.731435 8.55551L4.87037 12.6944L8 9.56481L3.30556 4.87037L0.731435 7.44449C0.658101 7.51723 0.599894 7.60376 0.560173 7.6991C0.520451 7.79445 0.5 7.89671 0.5 8C0.5 8.10329 0.520451 8.20555 0.560173 8.3009C0.599894 8.39624 0.658101 8.48277 0.731435 8.55551ZM12.6944 11.1296L8.55551 15.2686C8.48277 15.3419 8.39624 15.4001 8.3009 15.4398C8.20555 15.4796 8.10329 15.5 8 15.5C7.89671 15.5 7.79445 15.4796 7.6991 15.4398C7.60376 15.4001 7.51723 15.3419 7.44449 15.2686L4.87037 12.6944L9.56481 8L12.6944 11.1296ZM7.44449 0.731435L3.30556 4.87037L6.43518 8L11.1296 3.30556L8.55551 0.731435C8.48277 0.658101 8.39624 0.599894 8.3009 0.560173C8.20555 0.520451 8.10329 0.5 8 0.5C7.89671 0.5 7.79445 0.520451 7.6991 0.560173C7.60376 0.599894 7.51723 0.658101 7.44449 0.731435Z" fill="#9A9CAE"/>
</svg>
