<svg width="16" height="16" viewBox="0 0 16 16" fill="none" xmlns="http://www.w3.org/2000/svg">
<g clip-path="url(#clip0_1673_8907)">
<path d="M5.13398 0.833375L5.13398 10.8667H0.833985L0.833985 5.59204C0.833787 5.44703 0.862167 5.3034 0.917503 5.16937C0.972839 5.03533 1.05405 4.91351 1.15649 4.81087L5.13398 0.833375ZM10.8673 5.13337L10.8673 15.1667L14.8448 11.1892C14.9473 11.0866 15.0285 10.9648 15.0838 10.8307C15.1391 10.6967 15.1675 10.553 15.1673 10.408L15.1673 5.13337L10.8673 5.13337ZM15.1673 5.13337L5.13398 5.13337L5.13398 0.833375L10.4087 0.833375C10.5537 0.833176 10.6973 0.861556 10.8313 0.916892C10.9654 0.972229 11.0872 1.05344 11.1898 1.15588L15.1673 5.13337ZM0.833985 10.8667L4.81148 14.8442C4.91412 14.9466 5.03594 15.0279 5.16998 15.0832C5.30401 15.1385 5.44764 15.1669 5.59265 15.1667L10.8673 15.1667V10.8667L0.833985 10.8667Z" fill="#9A9CAE"/>
</g>
<defs>
<clipPath id="clip0_1673_8907">
<rect width="16" height="16" fill="white"/>
</clipPath>
</defs>
</svg>
