<svg width="21" height="20" viewBox="0 0 21 20" fill="none" xmlns="http://www.w3.org/2000/svg">
<path d="M20.3029 10.0758C20.2637 9.57555 20.083 9.09676 19.782 8.69534C19.4809 8.29391 19.0719 7.98642 18.6026 7.80874C18.4555 7.75561 18.3046 7.71351 18.1513 7.68279C17.9905 7.67196 17.8292 7.67196 17.6685 7.68279L3.32097 7.68279C3.1448 7.68412 2.96913 7.70168 2.79619 7.73527C2.63045 7.76678 2.46859 7.81605 2.31339 7.88221C1.86782 8.07074 1.48249 8.37789 1.19935 8.77021C0.916216 9.16253 0.746115 9.625 0.707563 10.1073L0.00435645 18.3149C-0.0115006 18.5247 0.016036 18.7356 0.0852497 18.9343C0.154463 19.133 0.263871 19.3154 0.406652 19.47C0.549433 19.6246 0.722528 19.7481 0.915146 19.8329C1.10776 19.9176 1.31578 19.9618 1.52622 19.9627L5.34663 19.9627C5.73611 19.9633 6.11101 19.8145 6.39412 19.547C6.67723 19.2795 6.847 18.9137 6.86849 18.5248V18.4408C6.89007 18.0501 7.06131 17.6827 7.34667 17.4149C7.63202 17.1472 8.00955 16.9996 8.40085 17.0029L12.2317 17.0029C12.6105 17.0035 12.9756 17.1443 13.2566 17.3982C13.5377 17.6521 13.7147 18.0011 13.7536 18.3778V18.5772C13.7901 18.9559 13.9661 19.3074 14.2474 19.5635C14.5286 19.8195 14.8951 19.9618 15.2755 19.9627L19.4212 19.9627C19.6361 19.9692 19.8499 19.9304 20.0487 19.8489C20.2476 19.7674 20.4271 19.645 20.5756 19.4896C20.7241 19.3342 20.8382 19.1493 20.9106 18.9469C20.9829 18.7445 21.0119 18.5292 20.9956 18.3149L20.3029 10.0758ZM7.18336 11.9755L4.03467 11.9755C3.83982 11.9755 3.65295 11.8981 3.51517 11.7603C3.37738 11.6225 3.29998 11.4357 3.29998 11.2408C3.29998 11.046 3.37738 10.8591 3.51517 10.7213C3.65295 10.5835 3.83982 10.5061 4.03467 10.5061L7.18336 10.5061C7.37821 10.5061 7.56508 10.5835 7.70286 10.7213C7.84065 10.8591 7.91805 11.046 7.91805 11.2408C7.91805 11.4357 7.84065 11.6225 7.70286 11.7603C7.56508 11.8981 7.37821 11.9755 7.18336 11.9755V11.9755ZM17.0492 11.9755L13.9006 11.9755C13.7057 11.9755 13.5188 11.8981 13.381 11.7603C13.2433 11.6225 13.1659 11.4357 13.1659 11.2408C13.1659 11.046 13.2433 10.8591 13.381 10.7213C13.5188 10.5835 13.7057 10.5061 13.9006 10.5061L17.0492 10.5061C17.2441 10.5061 17.431 10.5835 17.5687 10.7213C17.7065 10.8591 17.7839 11.046 17.7839 11.2408C17.7839 11.4357 17.7065 11.6225 17.5687 11.7603C17.431 11.8981 17.2441 11.9755 17.0492 11.9755V11.9755ZM19.7361 5.43673C19.7361 5.5341 19.7168 5.6305 19.6792 5.72033C19.6416 5.81016 19.5866 5.89162 19.5172 5.95998C19.4479 6.02834 19.3657 6.08224 19.2753 6.11854C19.185 6.15484 19.0883 6.17281 18.9909 6.17142L1.53672 6.17142C1.43936 6.17281 1.34269 6.15484 1.25234 6.11854C1.16199 6.08224 1.07975 6.02834 1.01041 5.95998C0.941074 5.89162 0.886016 5.81016 0.84844 5.72033C0.810863 5.6305 0.791518 5.5341 0.791528 5.43673C0.802264 5.24646 0.88549 5.06753 1.02409 4.93674C1.1627 4.80594 1.34614 4.73322 1.53672 4.73352L2.72272 4.73352L3.15304 2.42449C3.27296 1.74965 3.62498 1.13795 4.14821 0.695219C4.67144 0.252485 5.33297 0.00656387 6.01835 0L14.7507 0C15.4397 0.00167157 16.1062 0.245374 16.6338 0.688531C17.1613 1.13169 17.5164 1.74612 17.637 2.42449L18.0463 4.73352L18.9909 4.73352C19.1815 4.73322 19.3649 4.80594 19.5036 4.93674C19.6422 5.06753 19.7254 5.24646 19.7361 5.43673V5.43673Z" fill="#F5F5F5"/>
</svg>
