<svg width="104" height="80" viewBox="0 0 104 80" fill="none" xmlns="http://www.w3.org/2000/svg">
<path d="M39.9812 77.4996C44.1233 77.4996 47.481 74.1418 47.481 69.9998C47.481 65.8578 44.1233 62.5 39.9812 62.5C35.8392 62.5 32.4814 65.8578 32.4814 69.9998C32.4814 74.1418 35.8392 77.4996 39.9812 77.4996Z" fill="#01BF73"/>
<path opacity="0.3" d="M40.0552 42.5488C43.9324 42.5489 47.7656 43.3685 51.3042 44.9531C51.785 45.1856 52.2113 45.5175 52.5532 45.9277C52.895 46.3378 53.1446 46.8165 53.2866 47.3311C53.4286 47.8458 53.4597 48.3856 53.3765 48.9131C53.2933 49.4405 53.0977 49.9446 52.8042 50.3906L49.5425 55.3779C46.7084 53.4962 43.3819 52.4922 39.98 52.4922C36.5781 52.4922 33.2515 53.4962 30.4175 55.3779L27.1548 50.3906C26.866 49.9351 26.6797 49.4221 26.6069 48.8877C26.5342 48.3532 26.5773 47.8091 26.7339 47.293C26.8905 46.7769 27.1568 46.3003 27.5142 45.8965C27.8715 45.4928 28.3121 45.1713 28.8052 44.9531C32.3439 43.3684 36.1778 42.5488 40.0552 42.5488ZM39.979 22.4512C47.8362 22.4512 55.5699 24.4108 62.479 28.1523C62.9388 28.4023 63.3416 28.7454 63.6606 29.1602C63.9798 29.5751 64.2079 30.0529 64.3315 30.5615C64.4551 31.0699 64.4714 31.5984 64.3784 32.1133C64.2853 32.6283 64.0853 33.1186 63.7915 33.5518L60.4536 38.6143C54.3628 34.6448 47.2491 32.5312 39.979 32.5312C32.7091 32.5313 25.596 34.6449 19.5054 38.6143L16.1675 33.5518C15.8737 33.1186 15.6737 32.6283 15.5806 32.1133C15.4876 31.5984 15.5039 31.0699 15.6274 30.5615C15.7511 30.0529 15.9792 29.5751 16.2983 29.1602C16.6174 28.7453 17.0202 28.4023 17.48 28.1523C24.389 24.4109 32.122 22.4512 39.979 22.4512ZM39.98 2.5C51.7015 2.50008 63.2193 5.56485 73.3911 11.3896C73.8486 11.6367 74.2496 11.9763 74.5688 12.3867C74.8881 12.7971 75.1187 13.2692 75.2456 13.7734C75.3725 14.2776 75.394 14.8028 75.3071 15.3154C75.2202 15.8281 75.0268 16.3177 74.7407 16.752L71.4038 21.8887C62.0657 15.7699 51.1442 12.5108 39.98 12.5107C28.8156 12.5107 17.8934 15.7698 8.55518 21.8887L5.21826 16.752C4.93221 16.3177 4.73974 15.8281 4.65283 15.3154C4.56594 14.8028 4.58643 14.2777 4.71338 13.7734C4.84033 13.2692 5.07088 12.7971 5.39014 12.3867C5.7094 11.9763 6.11037 11.6367 6.56787 11.3896C16.7398 5.56477 28.2583 2.5 39.98 2.5Z" fill="#01BF73"/>
<path fill-rule="evenodd" clip-rule="evenodd" d="M81.8989 64.1006C81.5669 63.7687 81.5669 63.2305 81.8989 62.8986L86.3989 58.3986C86.7308 58.0666 87.269 58.0666 87.6009 58.3986L92.1009 62.8986C92.4329 63.2305 92.4329 63.7687 92.1009 64.1006C91.769 64.4326 91.2308 64.4326 90.8989 64.1006L87.8499 61.0517V76.9996C87.8499 77.4691 87.4693 77.8496 86.9999 77.8496C86.5305 77.8496 86.1499 77.4691 86.1499 76.9996V61.0517L83.1009 64.1006C82.769 64.4326 82.2308 64.4326 81.8989 64.1006Z" fill="#00A261"/>
<path opacity="0.3" fill-rule="evenodd" clip-rule="evenodd" d="M91.8989 71.8986C91.5669 72.2305 91.5669 72.7687 91.8989 73.1006L96.3989 77.6006C96.7308 77.9326 97.269 77.9326 97.6009 77.6006L102.101 73.1006C102.433 72.7687 102.433 72.2305 102.101 71.8986C101.769 71.5666 101.231 71.5666 100.899 71.8986L97.8499 74.9475V58.9996C97.8499 58.5302 97.4693 58.1496 96.9999 58.1496C96.5305 58.1496 96.1499 58.5302 96.1499 58.9996V74.9475L93.1009 71.8986C92.769 71.5666 92.2308 71.5666 91.8989 71.8986Z" fill="#00A261"/>
</svg>
