<svg width="19" height="19" viewBox="0 0 19 19" fill="none" xmlns="http://www.w3.org/2000/svg">
<path d="M9.45996 5.5C11.323 5.5 12.834 7.01098 12.834 8.87402V14.96C12.834 16.823 11.323 18.334 9.45996 18.334H3.37402C1.51098 18.334 0 16.823 0 14.96V8.87402C0 7.01098 1.51098 5.5 3.37402 5.5H9.45996ZM14.96 0C15.8546 0 16.7131 0.355684 17.3457 0.988281C17.9783 1.6209 18.334 2.47936 18.334 3.37402V9.45117C18.334 10.3466 17.979 11.2058 17.3467 11.8398C16.7143 12.4739 15.8555 12.8316 14.96 12.834H14.209V8.88281C14.2066 7.62179 13.7042 6.41316 12.8125 5.52148C11.9208 4.62983 10.7122 4.12742 9.45117 4.125H5.5V3.37402C5.50243 2.47868 5.86028 1.62061 6.49414 0.988281C7.1282 0.355943 7.98734 2.14827e-05 8.88281 0H14.96Z" fill="#006AE6"/>
</svg>
