<svg width="22" height="22" viewBox="0 0 22 22" fill="none" xmlns="http://www.w3.org/2000/svg">
<path d="M22 11C22 13.1756 21.3549 15.3023 20.1462 17.1113C18.9375 18.9202 17.2195 20.3301 15.2095 21.1627C13.1995 21.9952 10.9878 22.2131 8.85401 21.7886C6.72022 21.3642 4.76021 20.3165 3.22183 18.7782C1.68345 17.2398 0.635804 15.2798 0.211367 13.146C-0.21307 11.0122 0.00476612 8.80047 0.83733 6.79048C1.66989 4.78049 3.07979 3.06253 4.88873 1.85383C6.69767 0.645139 8.82441 0 11 0C12.4445 0 13.8749 0.284523 15.2095 0.837325C16.5441 1.39013 17.7567 2.20038 18.7782 3.22182C19.7996 4.24327 20.6099 5.4559 21.1627 6.79048C21.7155 8.12506 22 9.55546 22 11ZM12.551 11L15.664 7.887C15.8711 7.68132 15.9881 7.40179 15.9891 7.10989C15.9901 6.81799 15.8752 6.53763 15.6695 6.3305C15.4638 6.12336 15.1843 6.00642 14.8924 6.00539C14.6005 6.00435 14.3201 6.11932 14.113 6.325L11 9.449L7.887 6.391C7.6809 6.18612 7.40211 6.07113 7.1115 6.07113C6.8209 6.07113 6.5421 6.18612 6.336 6.391C6.13113 6.5971 6.01613 6.87589 6.01613 7.1665C6.01613 7.4571 6.13113 7.7359 6.336 7.942L9.449 11.055L6.325 14.091C6.12013 14.2971 6.00513 14.5759 6.00513 14.8665C6.00513 15.1571 6.12013 15.4359 6.325 15.642C6.5311 15.8469 6.8099 15.9619 7.1005 15.9619C7.39111 15.9619 7.6699 15.8469 7.876 15.642L11 12.529L14.102 15.642C14.2038 15.7446 14.3249 15.8261 14.4582 15.8818C14.5916 15.9376 14.7346 15.9666 14.8791 15.9671C15.0236 15.9676 15.1669 15.9397 15.3006 15.8848C15.4343 15.83 15.5559 15.7493 15.6585 15.6475C15.7611 15.5457 15.8426 15.4246 15.8983 15.2913C15.9541 15.1579 15.9831 15.0149 15.9836 14.8704C15.9841 14.7259 15.9562 14.5826 15.9013 14.4489C15.8465 14.3152 15.7658 14.1936 15.664 14.091L12.551 11Z" fill="#E42855"/>
</svg>
