<svg width="24" height="24" viewBox="0 0 24 24" fill="none" xmlns="http://www.w3.org/2000/svg">
<path d="M17.8986 4.56753C18.3219 4.14417 19.0084 4.14419 19.4318 4.56753C19.8551 4.9909 19.8551 5.67736 19.4318 6.10073L13.5324 11.9992L19.4318 17.8986C19.8551 18.3219 19.8551 19.0084 19.4318 19.4318C19.0084 19.8551 18.3219 19.8551 17.8986 19.4318L11.9992 13.5324L6.10072 19.4318C5.67735 19.8552 4.99088 19.8552 4.56751 19.4318C4.14417 19.0084 4.14415 18.3219 4.56751 17.8986L10.466 11.9992L4.56751 6.10073C4.14415 5.67737 4.14417 4.9909 4.56751 4.56753C4.99088 4.14416 5.67735 4.14416 6.10072 4.56753L11.9992 10.466L17.8986 4.56753Z" fill="#9A9CAE"/>
</svg>
