<svg width="20" height="22" viewBox="0 0 20 22" fill="none" xmlns="http://www.w3.org/2000/svg">
<path d="M15.9933 6.44981L3.35169 6.44981C3.1871 6.44637 3.02361 6.47735 2.87168 6.54075C2.71975 6.60414 2.58273 6.69857 2.4694 6.81797C2.35606 6.93738 2.26891 7.07913 2.21352 7.23416C2.15813 7.38919 2.13572 7.55408 2.14773 7.71827L2.91096 18.9409C2.96049 19.6461 3.27951 20.3052 3.80187 20.7815C4.32423 21.2578 5.00986 21.5149 5.71662 21.4993L13.8326 21.4026C14.5297 21.3927 15.197 21.1187 15.6998 20.6358C16.2027 20.153 16.5035 19.4973 16.5415 18.8012L17.1973 7.70752C17.2077 7.54419 17.1841 7.38048 17.128 7.22674C17.072 7.073 16.9846 6.93257 16.8714 6.81435C16.7582 6.69613 16.6217 6.60269 16.4706 6.53994C16.3195 6.47719 16.1569 6.4465 15.9933 6.44981ZM11.2312 16.447L8.1138 16.447C7.89997 16.447 7.69491 16.3621 7.54371 16.2109C7.39251 16.0597 7.30757 15.8546 7.30757 15.6408C7.30757 15.4269 7.39251 15.2219 7.54371 15.0707C7.69491 14.9195 7.89997 14.8345 8.1138 14.8345H11.2312C11.445 14.8345 11.6501 14.9195 11.8013 15.0707C11.9525 15.2219 12.0374 15.4269 12.0374 15.6408C12.0374 15.8546 11.9525 16.0597 11.8013 16.2109C11.6501 16.3621 11.445 16.447 11.2312 16.447ZM12.0697 12.4696H7.27532C7.0615 12.4696 6.85643 12.3847 6.70524 12.2335C6.55404 12.0823 6.4691 11.8772 6.4691 11.6634C6.4691 11.4496 6.55404 11.2445 6.70524 11.0933C6.85643 10.9421 7.0615 10.8572 7.27532 10.8572H12.0697C12.2835 10.8572 12.4886 10.9421 12.6398 11.0933C12.791 11.2445 12.8759 11.4496 12.8759 11.6634C12.8759 11.8772 12.791 12.0823 12.6398 12.2335C12.4886 12.3847 12.2835 12.4696 12.0697 12.4696ZM19.3472 4.85886C19.3153 5.06959 19.2013 5.25913 19.0301 5.38604C18.8589 5.51295 18.6444 5.5669 18.4335 5.53608C12.6309 4.73795 6.74635 4.73795 0.94377 5.53608H0.804024C0.601785 5.53553 0.407139 5.45899 0.258692 5.32164C0.110244 5.18429 0.0188388 4.99617 0.00260352 4.79458C-0.0136317 4.593 0.0464894 4.39267 0.171043 4.23333C0.295596 4.074 0.475484 3.96729 0.675028 3.93438C0.825524 3.93438 2.64222 3.62264 5.45863 3.4399L5.81337 1.62321C5.90325 1.16505 6.14981 0.75246 6.51073 0.456271C6.87165 0.160082 7.32441 -0.00123582 7.79131 7.12933e-06L11.5859 7.12933e-06C12.0553 0.0017887 12.5095 0.166907 12.8704 0.467019C13.2313 0.767131 13.4765 1.18352 13.5639 1.64471L13.8971 3.45065C15.4236 3.5474 17.0253 3.69789 18.6592 3.94513C18.7645 3.95964 18.8659 3.99482 18.9576 4.04867C19.0492 4.10251 19.1293 4.17395 19.1933 4.25887C19.2572 4.3438 19.3037 4.44053 19.3302 4.54349C19.3566 4.64646 19.3624 4.75364 19.3472 4.85886Z" fill="#FF3767"/>
</svg>
