<svg width="24" height="24" viewBox="0 0 24 24" fill="none" xmlns="http://www.w3.org/2000/svg">
<path d="M0.351132 6.85472C0.126303 6.62996 6.39944e-07 6.32517 6.39944e-07 6.00736C6.39944e-07 5.68956 0.126303 5.38476 0.351132 5.16L5.14824 0.365896C5.37442 0.147575 5.67736 0.02677 5.99181 0.0295008C6.30625 0.0322315 6.60705 0.158279 6.8294 0.380496C7.05176 0.602713 7.17789 0.903318 7.18062 1.21757C7.18335 1.53182 7.06247 1.83457 6.84401 2.06061L2.04691 6.85472C1.82201 7.07941 1.51703 7.20563 1.19902 7.20563C0.881015 7.20563 0.57603 7.07941 0.351132 6.85472ZM21.3385 16.546L16.5414 21.3401C16.4268 21.4507 16.3355 21.5829 16.2726 21.7292C16.2097 21.8754 16.1767 22.0327 16.1753 22.1918C16.1739 22.3509 16.2042 22.5088 16.2645 22.656C16.3248 22.8033 16.4139 22.9372 16.5265 23.0497C16.6391 23.1622 16.773 23.2512 16.9204 23.3115C17.0678 23.3717 17.2257 23.4021 17.3849 23.4007C17.5442 23.3993 17.7015 23.3662 17.8479 23.3034C17.9942 23.2406 18.1265 23.1493 18.2371 23.0348L23.0342 18.2407C23.2527 18.0147 23.3736 17.7119 23.3708 17.3977C23.3681 17.0834 23.242 16.7828 23.0196 16.5606C22.7973 16.3384 22.4965 16.2123 22.182 16.2096C21.8676 16.2069 21.5646 16.3277 21.3385 16.546ZM23.6339 8.75559C23.409 8.5309 23.104 8.40467 22.786 8.40467C22.468 8.40467 22.163 8.5309 21.9381 8.75559L8.74606 21.9394C8.63152 22.0499 8.54016 22.1822 8.4773 22.3284C8.41445 22.4746 8.38137 22.6319 8.37998 22.7911C8.3786 22.9502 8.40895 23.108 8.46925 23.2553C8.52955 23.4026 8.6186 23.5364 8.7312 23.649C8.8438 23.7615 8.9777 23.8505 9.12509 23.9107C9.27248 23.971 9.4304 24.0013 9.58964 24C9.74887 23.9986 9.90624 23.9655 10.0526 23.9027C10.1989 23.8399 10.3312 23.7486 10.4418 23.6341L23.6339 10.4503C23.8587 10.2255 23.985 9.92075 23.985 9.60294C23.985 9.28514 23.8587 8.98034 23.6339 8.75559ZM1.19902 15.5956C1.51706 15.5955 1.82205 15.4692 2.04691 15.2444L15.2389 2.06061C15.3535 1.95005 15.4449 1.8178 15.5077 1.67158C15.5706 1.52535 15.6036 1.36808 15.605 1.20894C15.6064 1.0498 15.5761 0.89198 15.5158 0.744686C15.4555 0.597391 15.3664 0.463573 15.2538 0.351041C15.1412 0.238508 15.0073 0.149513 14.8599 0.0892502C14.7125 0.0289872 14.5546 -0.00133763 14.3954 4.52524e-05C14.2361 0.00142813 14.0788 0.034491 13.9324 0.0973047C13.7861 0.160118 13.6538 0.251425 13.5432 0.365896L0.351132 13.5497C0.183462 13.7173 0.0692834 13.9308 0.0230303 14.1633C-0.0232229 14.3958 0.000526418 14.6367 0.0912757 14.8557C0.182025 15.0746 0.3357 15.2618 0.532872 15.3935C0.730045 15.5252 0.961863 15.5955 1.19902 15.5956ZM1.19902 23.9853C1.51706 23.9852 1.82205 23.8589 2.04691 23.6341L23.6339 2.06061C23.7484 1.95005 23.8398 1.8178 23.9026 1.67158C23.9655 1.52535 23.9986 1.36808 24 1.20894C24.0013 1.0498 23.971 0.89198 23.9107 0.744686C23.8504 0.597391 23.7613 0.463573 23.6487 0.351041C23.5361 0.238508 23.4022 0.149513 23.2548 0.0892502C23.1075 0.0289872 22.9495 -0.00133763 22.7903 4.52524e-05C22.6311 0.00142813 22.4737 0.034491 22.3274 0.0973047C22.1811 0.160118 22.0487 0.251425 21.9381 0.365896L0.351132 21.9394C0.183462 22.107 0.0692834 22.3205 0.0230303 22.553C-0.0232229 22.7854 0.000526418 23.0264 0.0912757 23.2454C0.182025 23.4643 0.3357 23.6515 0.532872 23.7832C0.730045 23.9149 0.961863 23.9852 1.19902 23.9853Z" fill="#636674"/>
</svg>
