<svg width="20" height="20" viewBox="0 0 20 20" fill="none" xmlns="http://www.w3.org/2000/svg">
<path d="M10.8483 1.60547C9.00297 1.61445 7.21271 2.23534 5.75805 3.37087C4.30339 4.5064 3.26652 6.09241 2.80988 7.88041L2.25129 7.03566C2.19841 6.94722 2.12817 6.87041 2.04479 6.80985C1.96142 6.7493 1.86665 6.70625 1.76619 6.68332C1.66573 6.66039 1.56166 6.65804 1.46027 6.67641C1.35888 6.69479 1.26226 6.73351 1.17624 6.79024C1.09021 6.84696 1.01657 6.92053 0.959752 7.00649C0.902932 7.09245 0.86411 7.18903 0.845627 7.2904C0.827145 7.39178 0.829385 7.49584 0.852213 7.59633C0.87504 7.69681 0.917982 7.79163 0.978449 7.87507L2.65726 10.4192C2.77388 10.5824 2.94581 10.6977 3.14106 10.7435C3.34044 10.7831 3.54737 10.7434 3.71796 10.6329L6.23618 8.93653C6.32301 8.88231 6.39804 8.81118 6.4568 8.72736C6.51557 8.64355 6.55687 8.54877 6.57825 8.44866C6.59963 8.34855 6.60065 8.24517 6.58125 8.14466C6.56185 8.04415 6.52243 7.94857 6.46533 7.86361C6.40823 7.77865 6.33462 7.70605 6.24888 7.65013C6.16314 7.5942 6.06703 7.5561 5.96626 7.53809C5.8655 7.52008 5.76214 7.52252 5.66233 7.54528C5.56253 7.56804 5.46833 7.61064 5.38533 7.67056L4.23992 8.44281C4.54476 7.20537 5.1913 6.07852 6.10576 5.19085C7.02022 4.30318 8.16577 3.69042 9.41173 3.42249C10.6577 3.15456 11.9539 3.24224 13.1524 3.67554C14.3509 4.10883 15.4035 4.8703 16.1901 5.87304C16.9767 6.87579 17.4655 8.07944 17.6009 9.34667C17.7363 10.6139 17.5128 11.8937 16.9559 13.04C16.3989 14.1863 15.531 15.1529 14.4511 15.8297C13.3712 16.5064 12.1228 16.866 10.8483 16.8674C9.75584 16.8644 8.68021 16.5977 7.71289 16.09C6.74556 15.5822 5.91514 14.8484 5.29223 13.9508C5.23644 13.8652 5.16401 13.7916 5.07923 13.7345C4.99446 13.6773 4.89907 13.6378 4.79872 13.6183C4.69838 13.5987 4.59513 13.5995 4.49511 13.6206C4.39508 13.6418 4.30033 13.6828 4.21646 13.7412C4.13259 13.7997 4.06132 13.8744 4.00688 13.9609C3.95244 14.0474 3.91594 14.144 3.89955 14.2449C3.88316 14.3458 3.88722 14.449 3.91147 14.5483C3.93573 14.6476 3.97969 14.7411 4.04075 14.8231C5.05343 16.283 6.50772 17.3796 8.18987 17.9517C9.87202 18.5237 11.6933 18.5411 13.3861 18.0013C15.0789 17.4615 16.5538 16.3929 17.5942 14.9526C18.6346 13.5123 19.1856 11.7762 19.1661 9.99953C19.1736 7.78419 18.3021 5.65632 16.7428 4.0827C15.1835 2.50907 13.0637 1.61819 10.8483 1.60547Z" fill="#F5F5F5"/>
<path d="M10.7721 5.38281C10.5697 5.38281 10.3756 5.46321 10.2325 5.60632C10.0894 5.74943 10.009 5.94352 10.009 6.14591V9.99954C10.0123 10.2013 10.0922 10.3942 10.2326 10.5391L12.5219 12.8489C12.6656 12.9903 12.8588 13.07 13.0603 13.071C13.2619 13.072 13.4559 12.9943 13.6009 12.8543C13.7446 12.7118 13.8258 12.5181 13.8266 12.3157C13.8275 12.1134 13.748 11.919 13.6055 11.7753L11.5352 9.68591V6.14591C11.5352 5.94352 11.4548 5.74943 11.3117 5.60632C11.1686 5.46321 10.9745 5.38281 10.7721 5.38281Z" fill="#F5F5F5"/>
</svg>
