<svg width="24" height="24" viewBox="0 0 24 24" fill="none" xmlns="http://www.w3.org/2000/svg">
<path d="M11.6766 23H7.15959C5.5221 22.9838 3.95704 22.3248 2.80392 21.1659C1.6508 20.0069 1.00262 18.4415 1 16.8093L1 12.307C1.00262 10.6747 1.6508 9.10936 2.80392 7.95042C3.95704 6.79147 5.5221 6.13244 7.15959 6.11628H11.6766C13.323 6.11898 14.9012 6.77209 16.0654 7.93248C17.2296 9.09288 17.8848 10.6659 17.8875 12.307V16.8093C17.8848 18.4503 17.2296 20.0234 16.0654 21.1838C14.9012 22.3442 13.323 22.9973 11.6766 23ZM7.15959 7.65116C5.92076 7.65116 4.73266 8.14169 3.85668 9.01482C2.98069 9.88795 2.48857 11.0722 2.48857 12.307L2.48857 16.8093C2.48857 18.0441 2.98069 19.2283 3.85668 20.1015C4.73266 20.9746 5.92076 21.4651 7.15959 21.4651H11.6766C12.29 21.4651 12.8974 21.3447 13.4641 21.1107C14.0309 20.8767 14.5458 20.5338 14.9795 20.1015C15.4133 19.6691 15.7573 19.1559 15.9921 18.591C16.2268 18.0261 16.3476 17.4207 16.3476 16.8093V12.307C16.3476 11.0722 15.8555 9.88795 14.9795 9.01482C14.1035 8.14169 12.9155 7.65116 11.6766 7.65116H7.15959ZM19.9202 13.627C20.8067 13.3653 21.585 12.8258 22.1397 12.0885C22.6945 11.3513 22.9961 10.4555 23 9.53395V5.26698C23 4.1353 22.549 3.04998 21.7461 2.24977C20.9433 1.44956 19.8545 1 18.7191 1L14.469 1C13.5275 1.00803 12.615 1.32516 11.8727 1.9023C11.1304 2.47944 10.5996 3.2844 10.3626 4.19256C10.337 4.29065 10.331 4.39282 10.345 4.49321C10.359 4.59361 10.3927 4.69028 10.4442 4.77769C10.4956 4.86511 10.5639 4.94157 10.645 5.00269C10.7261 5.06382 10.8185 5.10842 10.9169 5.13395C11.1157 5.18552 11.3269 5.15627 11.504 5.05264C11.6811 4.94902 11.8097 4.77951 11.8614 4.5814C12.012 3.99542 12.3541 3.47614 12.8337 3.10554C13.3134 2.73495 13.9032 2.53416 14.51 2.53488L18.7807 2.53488C19.5068 2.53758 20.2024 2.82629 20.7159 3.33807C21.2293 3.84986 21.519 4.54321 21.5217 5.26698V9.52372C21.5171 10.1171 21.3209 10.6933 20.9622 11.1669C20.6035 11.6405 20.1014 11.9865 19.5301 12.1535C19.3522 12.2052 19.1989 12.3192 19.0985 12.4744C18.9981 12.6297 18.9573 12.8159 18.9835 12.9988C19.0097 13.1816 19.1012 13.349 19.2412 13.47C19.3812 13.591 19.5603 13.6577 19.7457 13.6577L19.9202 13.627Z" fill="#9A9CAE"/>
</svg>
