<svg width="14" height="15" viewBox="0 0 14 15" fill="none" xmlns="http://www.w3.org/2000/svg">
<path d="M13.2107 4.09115C13.2451 4.18216 13.2569 4.28016 13.245 4.37673C13.2331 4.47329 13.1979 4.56552 13.1424 4.64546C13.087 4.7254 13.0129 4.79066 12.9266 4.83562C12.8404 4.88058 12.7444 4.90388 12.6471 4.90353L0.937225 4.90353C0.819809 4.90084 0.704762 4.86994 0.601804 4.81343C0.498846 4.75692 0.411 4.67646 0.345686 4.57885C0.280373 4.48124 0.23951 4.36934 0.22655 4.25261C0.213589 4.13588 0.228912 4.01774 0.271224 3.90818C0.490925 3.37896 0.822472 2.90351 1.24313 2.51443C1.6638 2.12535 2.16363 1.83184 2.70835 1.65403L2.70835 0.50499C2.71401 0.376842 2.76893 0.255827 2.86165 0.167193C2.95438 0.0785585 3.07775 0.0291499 3.20602 0.0292748C3.33995 0.0292748 3.4684 0.0824788 3.5631 0.177183C3.65781 0.271887 3.71101 0.400333 3.71101 0.534265L3.71101 1.49301C3.79152 1.49301 3.8647 1.49301 3.94521 1.49301L6.33842 1.49301V0.50499C6.33842 0.371058 6.39163 0.242612 6.48633 0.147908C6.58103 0.0532041 6.70948 0 6.84341 0C6.97734 0 7.10579 0.0532041 7.20049 0.147908C7.2952 0.242612 7.3484 0.371058 7.3484 0.50499V1.44178L9.47082 1.44178C9.55133 1.44178 9.62452 1.44178 9.70502 1.44178V0.50499C9.71068 0.376842 9.7656 0.255827 9.85833 0.167193C9.95105 0.0785585 10.0744 0.0291499 10.2027 0.0292748C10.3366 0.0292748 10.4651 0.0824788 10.5598 0.177183C10.6545 0.271887 10.7077 0.400333 10.7077 0.534265V1.65403C11.2832 1.84226 11.8081 2.15976 12.2419 2.58221C12.6758 3.00465 13.0072 3.52082 13.2107 4.09115V4.09115ZM12.8667 5.88423L0.600565 5.88423C0.4414 5.88423 0.288754 5.94746 0.176207 6.06001C0.0636602 6.17255 0.000432157 6.3252 0.000432157 6.48436L0.000432157 10.6414C-0.00732995 11.1672 0.0895409 11.6893 0.28541 12.1774C0.481279 12.6654 0.772235 13.1096 1.14136 13.4842C1.51048 13.8588 1.95039 14.1562 2.43552 14.3592C2.92064 14.5622 3.44128 14.6667 3.96717 14.6667L9.5001 14.6667C10.021 14.6667 10.5368 14.5641 11.0181 14.3647C11.4994 14.1654 11.9367 13.8732 12.305 13.5048C12.6733 13.1365 12.9655 12.6992 13.1649 12.2179C13.3642 11.7367 13.4668 11.2209 13.4668 10.6999V6.51364C13.4708 6.4324 13.4582 6.3512 13.4298 6.27498C13.4015 6.19875 13.3579 6.12909 13.3018 6.07023C13.2456 6.01136 13.1781 5.96452 13.1033 5.93255C13.0285 5.90057 12.948 5.88413 12.8667 5.88423V5.88423ZM4.3331 11.6367C4.2107 11.6353 4.09144 11.5977 3.99027 11.5288C3.8891 11.4599 3.8105 11.3627 3.76433 11.2493C3.71815 11.136 3.70645 11.0115 3.73069 10.8915C3.75492 10.7715 3.81402 10.6614 3.90058 10.5748C3.98714 10.4882 4.09731 10.4291 4.21729 10.4049C4.33728 10.3807 4.46175 10.3924 4.57512 10.4385C4.68849 10.4847 4.78571 10.5633 4.85462 10.6645C4.92353 10.7657 4.96106 10.8849 4.96251 11.0073C4.96349 11.0902 4.94788 11.1725 4.9166 11.2493C4.88531 11.3261 4.83899 11.3959 4.78035 11.4546C4.7217 11.5132 4.65193 11.5595 4.57512 11.5908C4.49831 11.6221 4.41603 11.6377 4.3331 11.6367ZM4.3331 9.29474C4.21038 9.2933 4.09084 9.25559 3.9895 9.18636C3.88817 9.11714 3.80957 9.01948 3.76361 8.90569C3.71765 8.7919 3.70637 8.66705 3.73119 8.54687C3.75601 8.42668 3.81583 8.31652 3.90312 8.23025C3.9904 8.14398 4.10125 8.08545 4.22172 8.06204C4.34219 8.03862 4.4669 8.05136 4.58014 8.09865C4.69339 8.14594 4.79012 8.22568 4.85815 8.32781C4.92619 8.42995 4.9625 8.54993 4.96251 8.67265C4.96251 8.83764 4.89697 8.99587 4.7803 9.11254C4.66364 9.2292 4.50541 9.29474 4.34042 9.29474H4.3331ZM6.6824 9.29474C6.55969 9.2933 6.44014 9.25559 6.3388 9.18636C6.23747 9.11714 6.15887 9.01948 6.11291 8.90569C6.06695 8.7919 6.05567 8.66705 6.08049 8.54687C6.10531 8.42668 6.16513 8.31652 6.25242 8.23025C6.3397 8.14398 6.45055 8.08545 6.57102 8.06204C6.69149 8.03862 6.8162 8.05136 6.92944 8.09865C7.04269 8.14594 7.13942 8.22568 7.20745 8.32781C7.27549 8.42995 7.3118 8.54993 7.31181 8.67265C7.31181 8.83764 7.24627 8.99587 7.1296 9.11254C7.01294 9.2292 6.85471 9.29474 6.68972 9.29474H6.6824Z" fill="#9A9CAE"/>
</svg>
