<svg width="20" height="20" viewBox="0 0 20 20" fill="none" xmlns="http://www.w3.org/2000/svg">
<path d="M10.0004 2.24805C14.8446 2.24829 18.7719 6.1752 18.7719 11.0195C18.7717 15.8637 14.8446 19.7908 10.0004 19.791C5.15598 19.791 1.22805 15.8639 1.22791 11.0195C1.22791 6.17505 5.15589 2.24805 10.0004 2.24805ZM10.2045 5.51172C10.0119 5.51175 9.82702 5.58607 9.6908 5.71875C9.55464 5.8515 9.47804 6.032 9.47791 6.21973V10.2539C9.47792 10.4418 9.55453 10.622 9.6908 10.7549C9.82704 10.8877 10.0118 10.9619 10.2045 10.9619C10.3971 10.9619 10.5819 10.8876 10.7181 10.7549C10.8544 10.622 10.931 10.4418 10.931 10.2539V6.21973C10.9309 6.032 10.8543 5.8515 10.7181 5.71875C10.5819 5.58611 10.397 5.51172 10.2045 5.51172Z" fill="#F5F5F5"/>
<path d="M13.7897 0.680546C13.8237 0.771428 13.8386 0.868082 13.8333 0.964703V0.94581C13.8258 1.12876 13.746 1.30177 13.6105 1.42856C13.475 1.55536 13.2945 1.6261 13.1067 1.62596H7.29135C7.09863 1.62596 6.9138 1.55131 6.77753 1.41845C6.64125 1.28558 6.5647 1.10537 6.5647 0.91747C6.5647 0.729568 6.64125 0.549362 6.77753 0.416495C6.9138 0.283628 7.09863 0.208984 7.29135 0.208984H13.1067C13.2059 0.210123 13.3039 0.230806 13.3947 0.269791C13.4855 0.308775 13.5673 0.365257 13.6352 0.435844C13.7031 0.50643 13.7556 0.589664 13.7897 0.680546Z" fill="#F5F5F5"/>
</svg>
