<svg width="18" height="18" viewBox="0 0 18 18" fill="none" xmlns="http://www.w3.org/2000/svg">
<path d="M12.0602 4.3026C11.2621 4.3026 10.5527 4.12525 9.84324 3.85922L6.3848 2.1744C5.14331 1.55367 3.10372 1.90837 2.21694 2.8838L1.24149 3.9479L0 2.70645L0.975456 1.64235C2.3943 0.0461942 5.23199 -0.485857 7.1829 0.489569L10.73 2.1744C11.9715 2.79512 14.0111 2.44042 14.8979 1.465L15.7846 0.400894L17.1148 1.55367L16.1394 2.61777C15.1639 3.68187 13.6564 4.3026 12.0602 4.3026Z" fill="#F5F5F5"/>
<path d="M10.8187 7.4082H12.9469L9.57718 17.2511H7.27156L3.99048 7.4082H6.11875L8.51305 15.4776L10.8187 7.4082Z" fill="#F5F5F5"/>
</svg>
