<svg width="20" height="20" viewBox="0 0 20 20" fill="none" xmlns="http://www.w3.org/2000/svg">
<path d="M1.42566 5.17151C1.35851 5.08718 1.30895 4.99025 1.27988 4.88644C1.25082 4.78264 1.24285 4.67406 1.25644 4.56713C1.27004 4.46019 1.30492 4.35706 1.35903 4.26383C1.41314 4.1706 1.48538 4.08915 1.57149 4.0243C1.64926 3.96597 9.6408 -1.96448 18.3907 4.0243C18.4812 4.08469 18.5587 4.16277 18.6183 4.25386C18.6779 4.34495 18.7184 4.44716 18.7375 4.55434C18.7566 4.66152 18.7538 4.77145 18.7293 4.87751C18.7047 4.98358 18.659 5.08358 18.5948 5.17151C18.5165 5.28115 18.4128 5.37024 18.2926 5.43118C18.1724 5.49212 18.0393 5.5231 17.9045 5.5215C17.7318 5.52141 17.5628 5.47071 17.4184 5.37567C15.2513 3.84529 12.6633 3.02363 10.0102 3.02363C7.35717 3.02363 4.76921 3.84529 2.60203 5.37567C2.41802 5.50168 2.19208 5.55085 1.97234 5.51272C1.7526 5.47458 1.55645 5.35215 1.42566 5.17151ZM14.7352 9.51727C14.8688 9.5184 15.0008 9.48822 15.1207 9.42912C15.2406 9.37003 15.3449 9.28368 15.4254 9.17699C15.5358 9.00258 15.5751 8.79249 15.5354 8.58996C15.4956 8.38742 15.3797 8.20783 15.2115 8.08812C13.6773 7.02697 11.8562 6.45852 9.99079 6.45852C8.12537 6.45852 6.30424 7.02697 4.77005 8.08812C4.6831 8.15121 4.60999 8.23141 4.55519 8.3238C4.5004 8.41619 4.46509 8.51882 4.45143 8.62536C4.43777 8.73191 4.44605 8.84012 4.47576 8.94335C4.50548 9.04657 4.556 9.14263 4.62421 9.22561C4.76352 9.39711 4.96377 9.50808 5.18305 9.53526C5.40233 9.56245 5.62362 9.50374 5.80058 9.37144C7.04203 8.51307 8.51552 8.05327 10.0248 8.05327C11.5341 8.05327 13.0076 8.51307 14.2491 9.37144C14.3915 9.47044 14.5617 9.52152 14.7352 9.51727ZM7.61861 12.3269C7.54277 12.402 7.48257 12.4913 7.44148 12.5898C7.40039 12.6882 7.37923 12.7939 7.37923 12.9005C7.37923 13.0072 7.40039 13.1129 7.44148 13.2113C7.48257 13.3098 7.54277 13.3991 7.61861 13.4741C7.77284 13.632 7.98153 13.7249 8.202 13.7339C8.42248 13.743 8.63808 13.6674 8.8047 13.5228C9.14869 13.2085 9.59778 13.0342 10.0637 13.0342C10.5296 13.0342 10.9787 13.2085 11.3227 13.5228C11.4739 13.646 11.6624 13.7145 11.8574 13.7172C11.9807 13.719 12.1029 13.6938 12.2154 13.6434C12.3279 13.5931 12.428 13.5187 12.5088 13.4255C12.5794 13.3442 12.6327 13.2494 12.6657 13.1469C12.6986 13.0444 12.7104 12.9363 12.7004 12.8291C12.6904 12.7219 12.6588 12.6178 12.6075 12.5232C12.5562 12.4285 12.4862 12.3452 12.4019 12.2783C11.7382 11.6967 10.8834 11.3801 10.001 11.3891C9.11851 11.398 8.27034 11.7319 7.61861 12.3269ZM17.9045 17.013H2.64091C2.42432 17.013 2.21661 17.099 2.06345 17.2522C1.9103 17.4053 1.82426 17.613 1.82426 17.8296C1.82426 18.0462 1.9103 18.2539 2.06345 18.4071C2.21661 18.5602 2.42432 18.6463 2.64091 18.6463H17.9045C18.1211 18.6463 18.3289 18.5602 18.482 18.4071C18.6352 18.2539 18.7212 18.0462 18.7212 17.8296C18.7212 17.613 18.6352 17.4053 18.482 17.2522C18.3289 17.099 18.1211 17.013 17.9045 17.013Z" fill="#F5F5F5"/>
</svg>
