<svg width="15" height="13" viewBox="0 0 15 13" fill="none" xmlns="http://www.w3.org/2000/svg">
<path d="M2.44866 6.58803C2.56731 6.38334 2.73767 6.21342 2.94266 6.0953C3.14766 5.97718 3.3801 5.915 3.61669 5.915C3.85328 5.915 4.08572 5.97718 4.29072 6.0953C4.49572 6.21342 4.66607 6.38334 4.78472 6.58803L5.92999 8.56002L7.06768 10.5396C7.18802 10.7449 7.25194 10.9784 7.25295 11.2164C7.25397 11.4544 7.19205 11.6885 7.07347 11.8949C6.95489 12.1012 6.78386 12.2726 6.57772 12.3915C6.37158 12.5105 6.13766 12.5728 5.89965 12.5723H1.3489C1.11201 12.5721 0.879351 12.5095 0.674277 12.391C0.469204 12.2724 0.298939 12.1019 0.180584 11.8967C0.0622289 11.6915 -5.07766e-05 11.4588 3.10616e-08 11.2219C5.08387e-05 10.985 0.0624302 10.7523 0.180874 10.5472L1.31098 8.56002L2.44866 6.58803ZM14.8191 10.5472L11.9673 5.60962L9.1231 0.672053C9.00343 0.467502 8.83229 0.29784 8.62671 0.179938C8.42113 0.0620352 8.18827 0 7.95128 0C7.71429 0 7.48143 0.0620352 7.27585 0.179938C7.07027 0.29784 6.89914 0.467502 6.77946 0.672053L4.1552 5.22281C4.42562 5.29143 4.67931 5.41419 4.90093 5.58367C5.12255 5.75314 5.3075 5.96581 5.44458 6.2088L6.58226 8.18838L7.72754 10.168C7.9141 10.488 8.01239 10.8518 8.01239 11.2222C8.01239 11.5926 7.9141 11.9564 7.72754 12.2765C7.66082 12.3818 7.58466 12.4808 7.5 12.5723H13.6511C13.888 12.5721 14.1206 12.5095 14.3257 12.391C14.5308 12.2724 14.7011 12.1019 14.8194 11.8967C14.9378 11.6915 15.0001 11.4588 15 11.2219C14.9999 10.985 14.9376 10.7523 14.8191 10.5472V10.5472Z" fill="#006AE6"/>
</svg>
