<svg width="15" height="15" viewBox="0 0 15 15" fill="none" xmlns="http://www.w3.org/2000/svg">
<path d="M6.45733 6.44543L0.561959 4.08677C0.402465 4.02311 0.265685 3.9129 0.169319 3.77038C0.0729537 3.62787 0.0214378 3.45962 0.0214378 3.28741C0.0214378 3.1152 0.0729537 2.94695 0.169319 2.80444C0.265685 2.66193 0.402465 2.55171 0.561959 2.48805L6.45733 0.136568C6.91644 -0.0455227 7.4274 -0.0455227 7.88651 0.136568L13.7604 2.48805C13.9199 2.55171 14.0567 2.66193 14.1531 2.80444C14.2495 2.94695 14.301 3.1152 14.301 3.28741C14.301 3.45962 14.2495 3.62787 14.1531 3.77038C14.0567 3.9129 13.9199 4.02311 13.7604 4.08677L7.88651 6.44543C7.42612 6.6206 6.91772 6.6206 6.45733 6.44543V6.44543ZM13.8033 10.2379L12.8886 9.87228L8.46533 11.6502C7.64828 11.9752 6.73844 11.9752 5.92139 11.6502L1.4552 9.87228L0.540521 10.2379C0.381027 10.3016 0.244247 10.4118 0.147882 10.5543C0.051516 10.6968 0 10.8651 0 11.0373C0 11.2095 0.051516 11.3777 0.147882 11.5202C0.244247 11.6628 0.381027 11.773 0.540521 11.8366L6.45733 14.1881C6.92904 14.3817 7.45768 14.3817 7.92939 14.1881L13.8033 11.8366C13.962 11.7708 14.0973 11.6588 14.1918 11.515C14.2863 11.3712 14.3356 11.2022 14.3333 11.03C14.3309 10.8577 14.2772 10.6902 14.1789 10.549C14.0806 10.4077 13.9423 10.2994 13.7819 10.2379H13.8033ZM13.8033 6.36657L11.9025 5.6138L8.17235 7.11216C7.53027 7.37059 6.81357 7.37059 6.17149 7.11216L2.44133 5.6138L0.561959 6.36657C0.404683 6.43138 0.270162 6.54164 0.175492 6.68334C0.0808219 6.82503 0.0302752 6.99176 0.0302752 7.16234C0.0302752 7.33292 0.0808219 7.49965 0.175492 7.64135C0.270162 7.78304 0.404683 7.8933 0.561959 7.95812L6.45733 10.3168C6.93046 10.503 7.45626 10.503 7.92939 10.3168L13.8033 7.95812C13.9598 7.8912 14.0928 7.77913 14.1856 7.63614C14.2784 7.49316 14.3267 7.32573 14.3244 7.15513C14.3221 6.98453 14.2693 6.81847 14.1727 6.67806C14.0761 6.53764 13.9401 6.42922 13.7819 6.36657H13.8033Z" fill="#9A9CAE"/>
</svg>
