<svg width="24" height="24" viewBox="0 0 24 24" fill="none" xmlns="http://www.w3.org/2000/svg">
<g clip-path="url(#clip0_1529_10594)">
<path d="M17.3115 1.22229C17.3459 1.23887 17.3803 1.25545 17.4158 1.27253C18.363 1.7353 19.2361 2.34052 20.0118 3.05297C20.102 3.1356 20.1939 3.21553 20.2869 3.29502C20.6031 3.57133 20.8835 3.86838 21.1455 4.19621C21.2109 4.27714 21.2778 4.35689 21.3463 4.43519C21.9003 5.07032 22.3467 5.79881 22.7323 6.54593C22.7489 6.57793 22.7655 6.60993 22.7826 6.6429C23.5297 8.10164 24.0007 9.79716 24.0089 11.4417C24.0092 11.4828 24.0095 11.524 24.0098 11.5663C24.0106 11.6983 24.0109 11.8303 24.011 11.9623C24.011 12.0299 24.011 12.0299 24.0111 12.0989C24.0104 12.7593 23.9937 13.4009 23.8689 14.0514C23.8616 14.0913 23.8543 14.1312 23.8469 14.1724C23.5392 15.8307 22.9014 17.483 21.9017 18.8514C21.8714 18.8934 21.8714 18.8934 21.8404 18.9363C21.1854 19.841 20.4349 20.705 19.541 21.3823C19.4984 21.4163 19.4558 21.4504 19.4119 21.4854C17.7508 22.8065 15.7326 23.6105 13.6394 23.9132C13.6049 23.9184 13.5704 23.9236 13.5348 23.9289C10.5782 24.355 7.38834 23.5367 4.98637 21.7781C4.13527 21.1417 3.32147 20.4331 2.6667 19.5932C2.62264 19.5379 2.57859 19.4826 2.53453 19.4273C1.71647 18.3911 1.1059 17.254 0.65577 16.015C0.634602 15.9588 0.613428 15.9026 0.592245 15.8464C0.306229 15.0487 0.141622 14.1936 0.0437479 13.3532C0.0396271 13.3196 0.0355063 13.2859 0.0312607 13.2513C-0.012215 12.8482 -0.0106191 12.4436 -0.0108969 12.0387C-0.0109264 11.9999 -0.0109559 11.9612 -0.0109863 11.9213C-0.0102187 11.2851 0.0209684 10.6647 0.13118 10.0368C0.138449 9.99443 0.145719 9.95203 0.153208 9.90834C0.376075 8.64751 0.799411 7.4571 1.39894 6.32775C1.41408 6.29914 1.42923 6.27053 1.44483 6.24105C1.89728 5.39421 2.46245 4.61923 3.12008 3.91974C3.22895 3.80331 3.33457 3.68461 3.43992 3.56502C3.60811 3.37852 3.78601 3.21621 3.97817 3.05502C4.02117 3.017 4.06417 2.97897 4.10847 2.93979C7.40879 0.028373 12.2286 -0.777715 17.3115 1.22229Z" fill="#272320"/>
<path d="M4.27417 3.12695C7.49305 0.28761 12.2081 -0.514951 17.2146 1.45312C17.2452 1.46785 17.2759 1.48288 17.3074 1.49805V1.49707C18.1158 1.89213 18.8694 2.39451 19.5535 2.98047L19.8425 3.2373L20.1248 3.48535C20.4279 3.75056 20.6972 4.03625 20.95 4.35254L20.9509 4.35352L21.158 4.59961C21.6939 5.21413 22.1302 5.92323 22.5105 6.66016V6.66113C22.527 6.69299 22.5433 6.72499 22.5603 6.75781C23.2462 8.0974 23.692 9.63727 23.7517 11.1426L23.7585 11.4434L23.7595 11.5684C23.7603 11.6996 23.7604 11.8313 23.7605 11.9629C23.7605 12.0299 23.7614 12.0302 23.7615 12.0986C23.7608 12.7567 23.7438 13.3783 23.6238 14.0039L23.6228 14.0068C23.6156 14.0465 23.6087 14.0861 23.6013 14.127C23.2992 15.7554 22.6738 17.3712 21.7 18.7041L21.699 18.7051C21.6688 18.7469 21.6682 18.7474 21.6375 18.79C20.9905 19.6835 20.257 20.5259 19.3904 21.1826L19.3845 21.1865C19.3419 21.2205 19.2995 21.255 19.2556 21.29C17.6331 22.5802 15.6575 23.3689 13.6033 23.666H13.6023L13.4978 23.6816C10.6075 24.0978 7.48333 23.2966 5.13354 21.5762C4.2923 20.947 3.49902 20.254 2.86401 19.4395L2.86206 19.4375L2.73022 19.2715C1.93062 18.2584 1.33217 17.1458 0.890381 15.9297L0.889404 15.9268C0.86871 15.8718 0.848592 15.8167 0.827881 15.7617C0.55043 14.9878 0.388265 14.1529 0.291748 13.3242V13.3232L0.279053 13.2246H0.280029C0.238264 12.8374 0.239294 12.4464 0.239014 12.0381C0.238984 11.9997 0.239044 11.9614 0.239014 11.9219C0.239772 11.2932 0.270912 10.6884 0.377686 10.0801V10.0791C0.384866 10.0372 0.391777 9.99527 0.39917 9.95215C0.617181 8.7188 1.03185 7.55303 1.61987 6.44531V6.44434L1.66577 6.3584C2.05206 5.63549 2.52251 4.9652 3.06519 4.35059L3.30249 4.09082C3.41399 3.97159 3.52099 3.8495 3.62671 3.72949C3.78364 3.55574 3.95134 3.40223 4.13745 3.24609L4.13843 3.24707L4.14331 3.24219C4.18631 3.20416 4.22987 3.16613 4.27417 3.12695Z" stroke="#D74E00" stroke-opacity="0.2" stroke-width="0.5"/>
<path d="M4.06555 8.5957C9.30227 8.5957 14.539 8.5957 19.9344 8.5957C19.9344 9.3157 19.9344 10.0357 19.9344 10.7775C14.6977 10.7775 9.46096 10.7775 4.06555 10.7775C4.06555 10.0575 4.06555 9.33752 4.06555 8.5957Z" fill="#D74E00"/>
<path d="M16.4371 13.2227C17.5912 13.2227 18.7453 13.2227 19.9344 13.2227C19.9344 13.9501 19.9158 14.6775 19.8907 15.4045C18.751 15.4045 17.6113 15.4045 16.4371 15.4045C16.4371 14.6845 16.4371 13.9645 16.4371 13.2227Z" fill="#D74E00"/>
<path d="M4.06555 13.2227C5.20522 13.2227 6.3449 13.2227 7.5191 13.2227C7.52001 13.5179 7.52091 13.8131 7.52184 14.1172C7.52223 14.2097 7.52263 14.3022 7.52304 14.3975C7.52317 14.4718 7.52328 14.5461 7.52337 14.6204C7.5236 14.6582 7.52382 14.696 7.52405 14.7349C7.52406 14.7906 7.52406 14.7906 7.52407 14.8475C7.52416 14.8793 7.52426 14.9111 7.52436 14.9438C7.51709 15.0981 7.49458 15.2513 7.47539 15.4045C6.35014 15.4045 5.2249 15.4045 4.06555 15.4045C4.06555 14.6845 4.06555 13.9645 4.06555 13.2227Z" fill="#D74E00"/>
<path d="M10.2732 13.2227C11.4129 13.2227 12.5525 13.2227 13.7267 13.2227C13.7267 13.9501 13.7258 14.6783 13.683 15.4045C12.5578 15.4045 11.4325 15.4045 10.2732 15.4045C10.2732 14.6845 10.2732 13.9645 10.2732 13.2227Z" fill="#D74E00"/>
</g>
<defs>
<clipPath id="clip0_1529_10594">
<rect width="24" height="24" fill="white"/>
</clipPath>
</defs>
</svg>
