<svg width="18" height="18" viewBox="0 0 18 18" fill="none" xmlns="http://www.w3.org/2000/svg">
<path fill-rule="evenodd" clip-rule="evenodd" d="M0 9.00001C0 8.36488 0.465714 7.85001 1.0402 7.85001L16.9598 7.85001C17.5343 7.85001 18 8.36488 18 9.00001C18 9.63513 17.5343 10.15 16.9598 10.15L1.0402 10.15C0.465714 10.15 0 9.63513 0 9.00001Z" fill="#9A9CAE"/>
<path fill-rule="evenodd" clip-rule="evenodd" d="M9 18C8.36487 18 7.85 17.5343 7.85 16.9598L7.85 1.0402C7.85 0.465712 8.36487 0 9 0C9.63513 0 10.15 0.465712 10.15 1.0402L10.15 9L10.15 16.9598C10.15 17.5343 9.63513 18 9 18Z" fill="#9A9CAE"/>
</svg>
