<svg width="32" height="32" viewBox="0 0 32 32" fill="none" xmlns="http://www.w3.org/2000/svg">
<path d="M30.6666 15.9997C30.6666 18.9005 29.8065 21.7361 28.1949 24.148C26.5833 26.56 24.2927 28.4398 21.6127 29.5499C18.9327 30.66 15.9837 30.9504 13.1387 30.3845C10.2936 29.8186 7.68026 28.4217 5.62909 26.3706C3.57792 24.3194 2.18105 21.706 1.61514 18.861C1.04922 16.0159 1.33967 13.067 2.44975 10.387C3.55984 7.707 5.4397 5.41638 7.85162 3.80479C10.2635 2.19319 13.0992 1.33301 16 1.33301C17.926 1.33301 19.8332 1.71237 21.6127 2.44944C23.3921 3.18651 25.009 4.26685 26.3709 5.62877C27.7328 6.9907 28.8131 8.60754 29.5502 10.387C30.2873 12.1664 30.6666 14.0736 30.6666 15.9997ZM15.56 21.441L24.36 12.641C24.6332 12.3662 24.7865 11.9945 24.7865 11.607C24.7865 11.2195 24.6332 10.8478 24.36 10.573C24.0852 10.2998 23.7135 10.1465 23.326 10.1465C22.9385 10.1465 22.5668 10.2998 22.292 10.573L14.5333 18.3317L9.69332 13.4917C9.41908 13.2155 9.04637 13.0596 8.65717 13.0582C8.26797 13.0568 7.89416 13.2101 7.61798 13.4843C7.34181 13.7586 7.18588 14.1313 7.1845 14.5205C7.18313 14.9097 7.33642 15.2835 7.61065 15.5597L13.4773 21.4263C13.6127 21.5648 13.7741 21.675 13.9523 21.7507C14.1305 21.8265 14.322 21.8662 14.5156 21.8675C14.7092 21.8689 14.9012 21.8319 15.0804 21.7587C15.2597 21.6855 15.4227 21.5775 15.56 21.441Z" fill="#00A261"/>
</svg>
