<svg width="18" height="18" viewBox="0 0 18 18" fill="none" xmlns="http://www.w3.org/2000/svg">
<path d="M8.95833 0C7.18654 0 5.45454 0.525397 3.98135 1.50975C2.50816 2.49411 1.35995 3.8932 0.681916 5.53013C0.0038815 7.16705 -0.173523 8.96827 0.172136 10.706C0.517795 12.4438 1.37099 14.04 2.62384 15.2928C3.87668 16.5457 5.47291 17.3989 7.21065 17.7445C8.9484 18.0902 10.7496 17.9128 12.3865 17.2347C14.0235 16.5567 15.4226 15.4085 16.4069 13.9353C17.3913 12.4621 17.9167 10.7301 17.9167 8.95833C17.9167 7.78191 17.685 6.617 17.2348 5.53013C16.7846 4.44325 16.1247 3.45569 15.2928 2.62383C14.461 1.79198 13.4734 1.13211 12.3865 0.681912C11.2997 0.231714 10.1348 0 8.95833 0V0ZM12.5417 9.62125H8.95833C8.77777 9.62125 8.60459 9.54952 8.47691 9.42184C8.34923 9.29415 8.2775 9.12098 8.2775 8.94041V3.90583C8.2775 3.72526 8.34923 3.55209 8.47691 3.42441C8.60459 3.29673 8.77777 3.225 8.95833 3.225C9.1389 3.225 9.31208 3.29673 9.43976 3.42441C9.56744 3.55209 9.63917 3.72526 9.63917 3.90583V3.90583V8.2775H12.5417C12.7222 8.2775 12.8954 8.34923 13.0231 8.47691C13.1508 8.60459 13.2225 8.77776 13.2225 8.95833C13.2225 9.1389 13.1508 9.31207 13.0231 9.43975C12.8954 9.56743 12.7222 9.63916 12.5417 9.63916V9.62125Z" fill="#F5F5F5"/>
</svg>
