<svg width="24" height="24" viewBox="0 0 24 24" fill="none" xmlns="http://www.w3.org/2000/svg">
<g clip-path="url(#clip0_1529_10565)">
<path d="M14.051 0.13076C14.0972 0.139213 14.1434 0.147666 14.191 0.156375C15.2646 0.359861 16.3004 0.694399 17.2801 1.17994C17.3182 1.19877 17.3563 1.2176 17.3956 1.237C18.1067 1.59147 18.747 2.00427 19.3746 2.49142C19.4107 2.51908 19.4468 2.54675 19.484 2.57526C20.181 3.11973 20.8409 3.75887 21.3819 4.45863C21.4333 4.52295 21.4333 4.52295 21.4859 4.58858C23.417 7.02025 24.2612 10.1936 23.9641 13.2705C23.9383 13.4964 23.9053 13.7206 23.8692 13.945C23.8626 13.9881 23.856 14.0313 23.8493 14.0757C23.6719 15.2083 23.2881 16.33 22.7782 17.3548C22.7638 17.3849 22.7493 17.4149 22.7345 17.4459C22.3161 18.3142 21.7525 19.1217 21.1201 19.8466C21.0898 19.8813 21.0898 19.8813 21.059 19.9167C20.9229 20.0717 20.7829 20.2225 20.6401 20.3712C20.6161 20.3961 20.5922 20.421 20.5676 20.4467C20.2452 20.7804 19.9161 21.0918 19.5491 21.3767C19.4872 21.4267 19.4872 21.4267 19.424 21.4778C17.328 23.1448 14.7085 24.0241 12.041 24.0133C11.9999 24.0132 11.9589 24.0131 11.9166 24.013C11.2663 24.0109 10.6345 23.9813 9.99279 23.8685C9.95219 23.8619 9.9116 23.8553 9.86978 23.8485C7.65959 23.4841 5.54896 22.4117 3.91932 20.8796C3.8029 20.7707 3.68419 20.6651 3.5646 20.5597C3.40788 20.4187 3.26643 20.2728 3.13097 20.1113C3.07889 20.05 3.02516 19.9902 2.97006 19.9316C2.39436 19.3189 1.939 18.6097 1.52733 17.8794C1.50822 17.8458 1.48911 17.8123 1.46942 17.7777C-0.0668329 15.0579 -0.372303 11.7294 0.437786 8.73305C0.850713 7.27748 1.51835 5.91766 2.4437 4.72092C2.47362 4.68165 2.50355 4.64237 2.53438 4.6019C2.73045 4.34997 2.94308 4.11545 3.16012 3.88178C3.24958 3.78442 3.33538 3.68578 3.42006 3.58431C3.81068 3.13535 4.28244 2.76015 4.75642 2.40398C4.78076 2.38563 4.80509 2.36727 4.83016 2.34836C5.25296 2.0317 5.69665 1.75175 6.15279 1.48595C6.1824 1.46865 6.21202 1.45135 6.24253 1.43353C7.39124 0.771729 8.69176 0.356984 9.99279 0.13076C10.0331 0.12354 10.0734 0.11632 10.115 0.108881C11.3787 -0.107572 12.7915 -0.1021 14.051 0.13076Z" fill="#172331"/>
<path d="M10.1572 0.355469C11.2382 0.170325 12.4323 0.151196 13.5381 0.301758L14.0059 0.376953C14.0515 0.385308 14.0975 0.392765 14.1445 0.401367V0.402344C15.1976 0.601954 16.2114 0.929713 17.1689 1.4043C17.2067 1.42296 17.2453 1.44075 17.2842 1.45996V1.46094C17.9788 1.80722 18.6056 2.2103 19.2217 2.68848L19.2227 2.68945C19.258 2.71656 19.2937 2.7436 19.3301 2.77148V2.77246C20.0131 3.30604 20.6573 3.93062 21.1836 4.61133L21.1865 4.61523C21.2375 4.67896 21.2386 4.67887 21.29 4.74316V4.74414C23.1777 7.12107 24.0061 10.2286 23.7148 13.2461C23.6897 13.4654 23.6576 13.6843 23.6221 13.9053V13.9072C23.6156 13.95 23.6092 13.993 23.6025 14.0371C23.4297 15.1408 23.0547 16.238 22.5547 17.2432L22.5527 17.2461C22.5384 17.276 22.5236 17.3061 22.5088 17.3369C22.1528 18.0757 21.6879 18.7729 21.1611 19.4121L20.9316 19.6826C20.9016 19.7171 20.9013 19.7172 20.8711 19.752C20.7381 19.9034 20.6008 20.0515 20.46 20.1982L20.3877 20.2734C20.0704 20.6019 19.7499 20.9036 19.3955 21.1787L19.3916 21.1826C19.3301 21.2323 19.3296 21.2323 19.2666 21.2832C17.2167 22.9129 14.6537 23.7742 12.042 23.7637H12.041C12.0001 23.7636 11.9591 23.7628 11.917 23.7627C11.2734 23.7606 10.6578 23.7313 10.0361 23.6221H10.0332L9.91016 23.6016C7.75103 23.2455 5.68568 22.1966 4.09082 20.6973H4.08984C3.97061 20.5858 3.8495 20.4778 3.72949 20.3721C3.58211 20.2393 3.44942 20.1018 3.32227 19.9502L3.32129 19.9492C3.26645 19.8847 3.20997 19.822 3.15234 19.7607C2.59676 19.1694 2.15278 18.48 1.74512 17.7568L1.74414 17.7559L1.68652 17.6543H1.6875C0.187114 14.9978 -0.115962 11.7392 0.677734 8.80078L0.678711 8.80176C1.08344 7.37508 1.73692 6.04404 2.6416 4.87402L2.64258 4.87207C2.67185 4.83365 2.70132 4.79539 2.73145 4.75586C2.92042 4.51305 3.12745 4.28463 3.34375 4.05176V4.05078C3.43629 3.95008 3.52546 3.8482 3.6123 3.74414L3.61133 3.74316C3.9827 3.31739 4.43547 2.95728 4.90625 2.60352H4.90723C4.93126 2.58538 4.95474 2.56652 4.97949 2.54785L4.98047 2.54883C5.39276 2.24005 5.82712 1.96508 6.27832 1.70215H6.2793C6.30827 1.68522 6.33639 1.66683 6.36621 1.64941L6.36719 1.65039C7.48496 1.00642 8.75622 0.599379 10.0352 0.376953H10.0371C10.0765 0.3699 10.1157 0.36175 10.1562 0.354492L10.1572 0.355469Z" stroke="#1B84FF" stroke-opacity="0.2" stroke-width="0.5"/>
<path d="M7.85187 10.3008C7.88155 10.3008 7.91124 10.3008 7.94182 10.3009C8.45265 10.3027 8.93308 10.3511 9.4255 10.492C9.45891 10.5014 9.49231 10.5108 9.52673 10.5204C10.8832 10.9113 11.8949 11.7853 12.9164 12.7216C13.8591 13.5814 14.8476 14.2495 16.169 14.2176C17.0141 14.1632 17.7836 13.8014 18.4146 13.2461C18.4638 13.2033 18.513 13.1605 18.5622 13.1177C18.6444 13.0463 18.7265 12.9748 18.8085 12.9032C19.0189 12.7198 19.2323 12.5404 19.4482 12.3636C19.4775 12.3395 19.5068 12.3153 19.537 12.2904C19.5646 12.268 19.5921 12.2455 19.6206 12.2224C19.6447 12.2027 19.6689 12.1829 19.6938 12.1626C19.7729 12.1055 19.8543 12.0649 19.9419 12.0221C19.951 12.3865 19.958 12.7509 19.9622 13.1154C19.9643 13.2847 19.967 13.454 19.9715 13.6232C19.9758 13.7868 19.9781 13.9503 19.9791 14.1139C19.9799 14.1761 19.9813 14.2382 19.9834 14.3004C19.9994 14.7857 19.9994 14.7857 19.8576 14.9778C19.7589 15.0672 19.6609 15.1413 19.5491 15.2134C19.5045 15.2452 19.5045 15.2452 19.4589 15.2777C19.3816 15.3326 19.3027 15.3826 19.2219 15.4319C19.1924 15.4501 19.163 15.4683 19.1326 15.487C18.8042 15.6853 18.4611 15.8488 18.1091 16.0002C18.0676 16.0182 18.0261 16.0361 17.9833 16.0545C17.4958 16.2472 16.9318 16.376 16.4073 16.3937C16.3651 16.3954 16.3651 16.3954 16.3221 16.3971C14.5214 16.4611 12.9751 15.7744 11.67 14.5603C11.4838 14.3858 11.302 14.2084 11.1246 14.0248C10.5326 13.4268 9.82829 12.9505 9.03278 12.6778C8.99138 12.663 8.94998 12.6481 8.90732 12.6328C8.09453 12.3829 7.23145 12.549 6.49205 12.9284C6.04683 13.1685 5.66928 13.4996 5.28721 13.8276C5.12182 13.9694 4.95362 14.1077 4.78454 14.2451C4.7049 14.3099 4.62572 14.3753 4.54692 14.4412C4.50806 14.4733 4.46919 14.5054 4.42914 14.5385C4.39449 14.5674 4.35984 14.5963 4.32414 14.6261C4.23278 14.6888 4.23278 14.6888 4.10187 14.6888C4.09852 14.3809 4.09625 14.073 4.09468 13.765C4.09402 13.6605 4.09313 13.5559 4.09199 13.4514C4.09039 13.3003 4.08966 13.1493 4.08908 12.9982C4.08807 12.9291 4.08807 12.9291 4.08704 12.8586C4.08693 12.3743 4.16578 11.9125 4.4946 11.5412C5.37883 10.682 6.64478 10.2991 7.85187 10.3008Z" fill="#006AE6"/>
<path d="M4.18908 7.60645C5.58726 7.60509 6.98544 7.60421 8.38362 7.60372C8.43555 7.6037 8.48748 7.60368 8.54098 7.60366C11.4422 7.60263 14.3433 7.60671 17.2445 7.62831C17.2797 7.62857 17.3149 7.62883 17.3512 7.6291C18.2147 7.63552 19.0783 7.64255 19.9418 7.65017C19.9418 8.37148 19.9418 9.09279 19.9418 9.83596C14.7146 9.83596 9.48741 9.83596 4.10181 9.83596C4.10181 9.44634 4.10606 9.06081 4.1209 8.67202C4.12261 8.62232 4.12433 8.57262 4.1261 8.52141C4.12792 8.47227 4.12975 8.42313 4.13164 8.3725C4.13324 8.32919 4.13484 8.28587 4.13648 8.24125C4.14435 8.10614 4.15541 7.97201 4.16782 7.83727C4.17377 7.7724 4.17377 7.7724 4.17985 7.70623C4.18442 7.65684 4.18442 7.65684 4.18908 7.60645Z" fill="#006AE6"/>
</g>
<defs>
<clipPath id="clip0_1529_10565">
<rect width="24" height="24" fill="white"/>
</clipPath>
</defs>
</svg>
