<svg width="20" height="20" viewBox="0 0 20 20" fill="none" xmlns="http://www.w3.org/2000/svg">
<path d="M0.29261 5.71227C0.105252 5.52497 5.33286e-07 5.27097 5.33286e-07 5.00614C5.33286e-07 4.7413 0.105252 4.4873 0.29261 4.3L4.2902 0.304913C4.47869 0.122979 4.73113 0.0223083 4.99317 0.024584C5.25521 0.0268596 5.50587 0.131899 5.69117 0.31708C5.87647 0.502261 5.98157 0.752765 5.98385 1.01464C5.98613 1.27652 5.88539 1.52881 5.70334 1.71718L1.70576 5.71227C1.51834 5.89951 1.26419 6.0047 0.999184 6.0047C0.734179 6.0047 0.480025 5.89951 0.29261 5.71227ZM17.7821 13.7883L13.7845 17.7834C13.689 17.8756 13.6129 17.9858 13.5605 18.1076C13.5081 18.2295 13.4806 18.3605 13.4794 18.4932C13.4782 18.6258 13.5035 18.7573 13.5538 18.88C13.604 19.0028 13.6782 19.1143 13.7721 19.2081C13.8659 19.3019 13.9775 19.376 14.1003 19.4262C14.2231 19.4765 14.3547 19.5017 14.4874 19.5006C14.6201 19.4994 14.7513 19.4719 14.8732 19.4195C14.9951 19.3672 15.1054 19.2911 15.1976 19.1957L19.1952 15.2006C19.3772 15.0122 19.478 14.7599 19.4757 14.4981C19.4734 14.2362 19.3683 13.9857 19.183 13.8005C18.9977 13.6153 18.7471 13.5103 18.485 13.508C18.223 13.5057 17.9705 13.6064 17.7821 13.7883ZM19.6949 7.29632C19.5075 7.10908 19.2533 7.00389 18.9883 7.00389C18.7233 7.00389 18.4692 7.10908 18.2817 7.29632L7.28839 18.2828C7.19293 18.375 7.1168 18.4852 7.06442 18.607C7.01204 18.7289 6.98447 18.8599 6.98332 18.9925C6.98217 19.1252 7.00745 19.2567 7.0577 19.3794C7.10795 19.5022 7.18216 19.6137 7.276 19.7075C7.36984 19.8012 7.48142 19.8754 7.60424 19.9256C7.72706 19.9758 7.85866 20.0011 7.99136 20C8.12406 19.9988 8.2552 19.9713 8.37713 19.9189C8.49906 19.8666 8.60934 19.7905 8.70153 19.6951L19.6949 8.70859C19.8823 8.52129 19.9875 8.26729 19.9875 8.00245C19.9875 7.73762 19.8823 7.48362 19.6949 7.29632ZM0.999184 12.9963C1.26422 12.9963 1.51838 12.891 1.70576 12.7037L12.6991 1.71718C12.7946 1.62504 12.8707 1.51484 12.9231 1.39298C12.9755 1.27113 13.003 1.14007 13.0042 1.00745C13.0053 0.874835 12.9801 0.743317 12.9298 0.620571C12.8796 0.497826 12.8053 0.386311 12.7115 0.292534C12.6177 0.198756 12.5061 0.124594 12.3833 0.0743752C12.2604 0.024156 12.1288 -0.00111469 11.9961 3.77104e-05C11.8634 0.00119011 11.7323 0.0287425 11.6104 0.0810872C11.4884 0.133432 11.3782 0.209521 11.286 0.304913L0.29261 11.2914C0.152885 11.4311 0.0577362 11.609 0.0191919 11.8028C-0.0193524 11.9965 0.000438681 12.1973 0.0760631 12.3797C0.151687 12.5622 0.27975 12.7182 0.44406 12.8279C0.608371 12.9377 0.801553 12.9963 0.999184 12.9963ZM0.999184 19.9877C1.26422 19.9877 1.51838 19.8824 1.70576 19.6951L19.6949 1.71718C19.7903 1.62504 19.8665 1.51484 19.9189 1.39298C19.9712 1.27113 19.9988 1.14007 20 1.00745C20.0011 0.874835 19.9758 0.743317 19.9256 0.620571C19.8753 0.497826 19.8011 0.386311 19.7073 0.292534C19.6134 0.198756 19.5019 0.124594 19.379 0.0743752C19.2562 0.024156 19.1246 -0.00111469 18.9919 3.77104e-05C18.8592 0.00119011 18.7281 0.0287425 18.6061 0.0810872C18.4842 0.133432 18.3739 0.209521 18.2817 0.304913L0.29261 18.2828C0.152885 18.4225 0.0577362 18.6004 0.0191919 18.7942C-0.0193524 18.9879 0.000438681 19.1887 0.0760631 19.3711C0.151687 19.5536 0.27975 19.7096 0.44406 19.8193C0.608371 19.9291 0.801553 19.9877 0.999184 19.9877Z" fill="#636674"/>
</svg>
