<svg width="15" height="15" viewBox="0 0 15 15" fill="none" xmlns="http://www.w3.org/2000/svg">
<path d="M8.10832 6.93664L12.3781 2.67402C12.6778 3.12042 12.838 3.64588 12.8382 4.18355V11.6377C12.8382 12.3514 12.5552 13.036 12.0512 13.5413C11.5472 14.0466 10.8635 14.3314 10.1498 14.3333H2.69559C1.98067 14.3333 1.29504 14.0493 0.789519 13.5438C0.283998 13.0383 0 12.3527 0 11.6377L0 4.18355C-1.26414e-06 3.8299 0.0697738 3.47972 0.205328 3.15308C0.340882 2.82644 0.539551 2.52975 0.789953 2.28002C1.04036 2.03028 1.33757 1.83241 1.66457 1.69773C1.99158 1.56305 2.34194 1.49421 2.69559 1.49515H10.1498C10.6596 1.49697 11.1583 1.64409 11.5874 1.91926L7.34637 6.17469C7.2934 6.22405 7.25092 6.28356 7.22145 6.3497C7.19199 6.41583 7.17614 6.48722 7.17487 6.5596C7.17359 6.63199 7.18691 6.70389 7.21402 6.77102C7.24113 6.83815 7.28149 6.89913 7.33269 6.95033C7.38388 7.00152 7.44486 7.04188 7.51199 7.06899C7.57912 7.09611 7.65102 7.10943 7.72341 7.10815C7.7958 7.10687 7.86719 7.09103 7.93332 7.06156C7.99945 7.03209 8.05897 6.98961 8.10832 6.93664ZM14.2614 0.56787C14.2644 0.494335 14.2524 0.42097 14.2262 0.35218C14.2001 0.28339 14.1603 0.220592 14.1093 0.167557C14.0582 0.114521 13.997 0.0723412 13.9293 0.0435482C13.8616 0.0147551 13.7887 -5.71927e-05 13.7151 1.65948e-07L10.7248 1.65948e-07C10.5825 0.00309719 10.4465 0.0595378 10.3439 0.158141C10.262 0.233204 10.205 0.331437 10.1803 0.439745C10.1557 0.548054 10.1647 0.661292 10.2061 0.764364C10.2475 0.867436 10.3193 0.955445 10.412 1.01666C10.5047 1.07787 10.6138 1.10938 10.7248 1.10699H12.4069L11.5946 1.91926C11.8994 2.10655 12.1653 2.35056 12.3781 2.63808L13.176 1.84019V3.59412C13.1914 3.72729 13.2552 3.85017 13.3552 3.93937C13.4553 4.02857 13.5847 4.07786 13.7187 4.07786C13.8528 4.07786 13.9822 4.02857 14.0822 3.93937C14.1823 3.85017 14.2461 3.72729 14.2614 3.59412V0.56787Z" fill="#9A9CAE"/>
</svg>
