<svg width="40" height="40" viewBox="0 0 40 40" fill="none" xmlns="http://www.w3.org/2000/svg">
<path d="M5.23628 13.7289L34.7637 13.7289C35.0916 13.7289 35.406 13.8591 35.6379 14.0909C35.8697 14.3228 36 14.6372 36 14.9651V19.6593C36 19.9871 35.8697 20.3016 35.6379 20.5334C35.406 20.7653 35.0916 20.8955 34.7637 20.8955L5.23628 20.8955C4.90841 20.8955 4.59396 20.7653 4.36212 20.5334C4.13028 20.3016 4.00003 19.9871 4.00003 19.6593L4.00003 14.9651C4.00003 14.8028 4.03201 14.642 4.09414 14.492C4.15626 14.342 4.24733 14.2057 4.36212 14.0909C4.47692 13.9761 4.6132 13.8851 4.76319 13.823C4.91318 13.7608 5.07394 13.7289 5.23628 13.7289ZM36 6.90262V10.7009C36 11.0288 35.8697 11.3433 35.6379 11.5751C35.406 11.8069 35.0916 11.9372 34.7637 11.9372L5.23628 11.9372C5.07394 11.9372 4.91318 11.9052 4.76319 11.8431C4.6132 11.781 4.47692 11.6899 4.36212 11.5751C4.24733 11.4603 4.15626 11.324 4.09414 11.174C4.03201 11.024 4.00003 10.8633 4.00003 10.7009V6.90262C3.99767 6.26904 4.12071 5.64125 4.36208 5.05545C4.60345 4.46964 4.95836 3.93739 5.40637 3.48938C5.85438 3.04137 8.0533 2.68645 8.6391 2.44509C9.22491 2.20372 9.8527 2.08067 10.4863 2.08304L31.1804 2.08304C31.814 2.08067 32.4418 2.20372 33.0276 2.44509C33.6134 2.68645 34.1456 3.04137 34.5936 3.48938C35.0417 3.93739 35.3966 4.46964 35.6379 5.05545C35.8793 5.64125 36.0023 6.26904 36 6.90262ZM25.8767 7.45803C25.872 7.10309 25.729 6.76399 25.478 6.51299C25.227 6.26199 24.8879 6.11892 24.5329 6.11428L15.8075 6.11428C15.4511 6.11428 15.1093 6.25586 14.8573 6.50786C14.6053 6.75986 14.4638 7.10165 14.4638 7.45803C14.4638 7.81442 14.6053 8.1562 14.8573 8.4082C15.1093 8.66021 15.4511 8.80178 15.8075 8.80178L24.5329 8.80178C24.8879 8.79714 25.227 8.65408 25.478 8.40307C25.729 8.15207 25.872 7.81297 25.8767 7.45803ZM36 23.9234V33.0967C36.0023 33.7303 35.8793 34.3581 35.6379 34.9439C35.3966 35.5297 35.0417 36.062 34.5936 36.51C34.1456 36.958 33.6134 37.3129 33.0276 37.5543C32.4418 37.7956 31.814 37.9187 31.1804 37.9163L8.81961 37.9163C8.18603 37.9187 7.55824 37.7956 6.97244 37.5543C6.38663 37.3129 5.85438 36.958 5.40637 36.51C4.95836 36.062 4.60345 35.5297 4.36208 34.9439C4.12071 34.3581 3.99767 33.7303 4.00003 33.0967L4.00003 23.9234C4.00003 23.5955 4.13028 23.2811 4.36212 23.0493C4.59396 22.8174 4.90841 22.6872 5.23628 22.6872L34.7637 22.6872C35.0916 22.6872 35.406 22.8174 35.6379 23.0493C35.8697 23.2811 36 23.5955 36 23.9234ZM15.0729 29.8538C15.0729 29.4109 14.9416 28.9779 14.6955 28.6096C14.4494 28.2413 14.0996 27.9542 13.6904 27.7847C13.2812 27.6152 12.8309 27.5709 12.3964 27.6573C11.962 27.7437 11.5629 27.957 11.2497 28.2702C10.9365 28.5834 10.7232 28.9825 10.6368 29.4169C10.5504 29.8513 10.5947 30.3016 10.7643 30.7109C10.9338 31.1201 11.2208 31.4699 11.5891 31.716C11.9574 31.9621 12.3904 32.0934 12.8334 32.0934C13.4273 32.0934 13.997 31.8574 14.417 31.4374C14.837 31.0174 15.0729 30.4478 15.0729 29.8538ZM29.4062 29.8538C29.4062 29.4109 29.2749 28.9779 29.0288 28.6096C28.7827 28.2413 28.4329 27.9542 28.0237 27.7847C27.6145 27.6152 27.1642 27.5709 26.7297 27.6573C26.2953 27.7437 25.8962 27.957 25.583 28.2702C25.2698 28.5834 25.0565 28.9825 24.9701 29.4169C24.8837 29.8513 24.9281 30.3016 25.0976 30.7109C25.2671 31.1201 25.5541 31.4699 25.9224 31.716C26.2907 31.9621 26.7237 32.0934 27.1667 32.0934C27.7606 32.0934 28.3303 31.8574 28.7503 31.4374C29.1703 31.0174 29.4062 30.4478 29.4062 29.8538Z" fill="#F5F5F5"/>
</svg>
