<svg width="24" height="24" viewBox="0 0 24 24" fill="none" xmlns="http://www.w3.org/2000/svg">
<path d="M20.4262 15.8052C20.7257 15.7782 21.0265 15.8386 21.2923 15.9792C21.5581 16.1198 21.7774 16.3344 21.9237 16.5972C22.0699 16.8599 22.1367 17.1594 22.1161 17.4594C22.0955 17.7594 21.9883 18.0469 21.8075 18.2872C21.1593 19.1919 20.377 19.9925 19.4874 20.6613C18.2121 21.5783 16.7567 22.2143 15.2175 22.5273C13.6782 22.8403 12.09 22.8232 10.5579 22.4771C9.02574 22.131 7.58444 21.4637 6.32921 20.5194C5.07397 19.5752 4.03335 18.3753 3.27608 16.9992C2.5188 15.623 2.06211 14.1018 1.93615 12.5361C1.81019 10.9704 2.01785 9.39581 2.54539 7.91629C3.07293 6.43676 3.90837 5.086 4.99651 3.9532C6.08465 2.8204 7.40074 1.93134 8.85786 1.34475C9.13544 1.24311 9.43625 1.22275 9.72499 1.28606C10.0137 1.34936 10.2784 1.49372 10.488 1.70217C10.6976 1.91062 10.8434 2.17453 10.9083 2.46293C10.9731 2.75132 10.9544 3.05224 10.8543 3.33036C10.2505 4.80274 10.0436 6.40773 10.2541 7.98509C10.4646 9.56246 11.0852 11.057 12.054 12.3195C13.0227 13.582 14.3057 14.5684 15.7748 15.18C17.2439 15.7916 18.8477 16.0072 20.4262 15.8052Z" fill="#9A9CAE"/>
</svg>
