<svg width="40" height="40" viewBox="0 0 40 40" fill="none" xmlns="http://www.w3.org/2000/svg">
<path d="M30.2882 17.0512C30.2907 16.8553 30.2543 16.6608 30.1811 16.4791C30.1079 16.2974 29.9993 16.132 29.8617 15.9926C29.724 15.8531 29.5601 15.7424 29.3793 15.6669C29.1985 15.5913 29.0045 15.5524 28.8086 15.5524L11.2464 15.5524C10.8489 15.5524 10.4677 15.7103 10.1866 15.9914C9.90554 16.2725 9.74764 16.6537 9.74764 17.0512C9.74764 17.4487 9.90554 17.8299 10.1866 18.111C10.4677 18.392 10.8489 18.5499 11.2464 18.5499L28.8086 18.5499C29.0045 18.55 29.1985 18.5111 29.3793 18.4355C29.5601 18.36 29.724 18.2493 29.8617 18.1098C29.9993 17.9704 30.1079 17.805 30.1811 17.6233C30.2543 17.4416 30.2907 17.2471 30.2882 17.0512V17.0512ZM24.101 26.428C24.1036 26.2337 24.0678 26.0408 23.9958 25.8603C23.9238 25.6798 23.8169 25.5153 23.6813 25.3761C23.5457 25.2369 23.384 25.1258 23.2055 25.0492C23.0269 24.9725 22.835 24.9317 22.6407 24.9292L11.3425 24.9292C10.945 24.9292 10.5638 25.0871 10.2827 25.3682C10.0016 25.6493 9.84371 26.0305 9.84371 26.428C9.84371 26.8255 10.0016 27.2067 10.2827 27.4877C10.5638 27.7688 10.945 27.9267 11.3425 27.9267L22.6407 27.9267C22.835 27.9242 23.0269 27.8834 23.2055 27.8068C23.384 27.7301 23.5457 27.619 23.6813 27.4798C23.8169 27.3406 23.9238 27.1761 23.9958 26.9956C24.0678 26.8152 24.1036 26.6223 24.101 26.428V26.428ZM37.5513 14.3803L37.5513 28.58C37.5665 29.9584 37.3094 31.3263 36.7948 32.6052C36.2801 33.884 35.5181 35.0487 34.5523 36.0323C33.5865 37.0159 32.436 37.7992 31.1668 38.3372C29.8976 38.8752 28.5346 39.1573 27.1562 39.1673L12.822 39.1673C10.0429 39.1622 7.37932 38.0547 5.41599 36.0877C3.45266 34.1208 2.34997 31.4552 2.34998 28.6761L2.34998 14.3803C2.34935 11.8255 3.28271 9.35857 4.97433 7.44399C6.66596 5.52941 8.99914 4.29928 11.5346 3.9852V5.79138C11.5346 6.17358 11.6864 6.54013 11.9567 6.81039C12.227 7.08065 12.5935 7.23248 12.9757 7.23248C13.3579 7.23248 13.7245 7.08065 13.9947 6.81039C14.265 6.54013 14.4168 6.17358 14.4168 5.79138V3.86991L25.5613 3.86991V5.79138C25.5613 6.17358 25.7132 6.54013 25.9834 6.81039C26.2537 7.08065 26.6202 7.23248 27.0024 7.23248C27.3846 7.23248 27.7512 7.08065 28.0215 6.81039C28.2917 6.54013 28.4435 6.17358 28.4435 5.79138V3.9852C30.9807 4.2953 33.3162 5.52426 35.0086 7.43972C36.701 9.35517 37.633 11.8243 37.6282 14.3803H37.5513ZM12.822 3.88912C12.3933 3.86034 11.9632 3.86034 11.5346 3.88912V2.27509C11.5346 1.89288 11.6864 1.52633 11.9567 1.25607C12.227 0.985815 12.5935 0.833984 12.9757 0.833984C13.3579 0.833984 13.7245 0.985815 13.9947 1.25607C14.265 1.52633 14.4168 1.89288 14.4168 2.27509V3.88912H12.822ZM27.1562 3.88912L25.5613 3.88912V2.27509C25.5613 1.89288 25.7132 1.52633 25.9834 1.25607C26.2537 0.985815 26.6202 0.833984 27.0024 0.833984C27.3846 0.833984 27.7512 0.985815 28.0215 1.25607C28.2917 1.52633 28.4435 1.89288 28.4435 2.27509V3.9852C28.0171 3.92381 27.587 3.89171 27.1562 3.88912V3.88912Z" fill="#F5F5F5"/>
</svg>
