<svg width="14" height="18" viewBox="0 0 14 18" fill="none" xmlns="http://www.w3.org/2000/svg">
<path d="M13.7852 15.4378C13.7765 14.755 13.6231 14.0818 13.3351 13.4626C13.0472 12.8435 12.6313 12.2923 12.1148 11.8456L9.6811 9.65433C9.58077 9.56691 9.49878 9.46045 9.43989 9.34111C9.381 9.22177 9.34637 9.09194 9.33802 8.95913C9.32967 8.82631 9.34775 8.69316 9.39123 8.56739C9.4347 8.44161 9.5027 8.32572 9.59129 8.22641L9.67212 8.15457L12.1059 5.98126C12.6223 5.53454 13.0382 4.98341 13.3262 4.36421C13.6141 3.74502 13.7675 3.07182 13.7763 2.38902V2.08368C13.7727 1.80652 13.7147 1.53277 13.6053 1.27807C13.496 1.02336 13.3376 0.792683 13.1391 0.599207C12.9406 0.405732 12.706 0.253248 12.4486 0.150466C12.1912 0.0476827 11.916 -0.00338655 11.6389 0.000174163H2.13739C1.86023 -0.00338655 1.58509 0.0476827 1.32768 0.150466C1.07026 0.253248 0.835615 0.405732 0.637136 0.599207C0.438657 0.792683 0.280233 1.02336 0.170912 1.27807C0.0615916 1.53277 0.00351556 1.80652 7.0077e-09 2.08368L7.0077e-09 2.38004C0.00876351 3.06284 0.162165 3.73604 0.45009 4.35523C0.738016 4.97443 1.15392 5.52556 1.67039 5.97228L4.10414 8.14559C4.20644 8.23248 4.29031 8.33897 4.35082 8.45878C4.41133 8.57859 4.44724 8.7093 4.45645 8.84321C4.46565 8.97712 4.44797 9.11151 4.40442 9.23848C4.36088 9.36544 4.29237 9.48241 4.20293 9.58249L4.1221 9.65433L1.67039 11.8276C1.15392 12.2744 0.738016 12.8255 0.45009 13.4447C0.162165 14.0639 0.00876351 14.7371 7.0077e-09 15.4199L7.0077e-09 15.806C-2.27632e-05 16.0855 0.0554451 16.3621 0.163186 16.62C0.270926 16.8778 0.428794 17.1116 0.627629 17.308C0.826465 17.5043 1.06231 17.6592 1.32148 17.7636C1.58065 17.8681 1.85798 17.9201 2.13739 17.9165H11.6568C11.934 17.9201 12.2091 17.869 12.4665 17.7662C12.724 17.6634 12.9586 17.5109 13.1571 17.3175C13.3556 17.124 13.514 16.8933 13.6233 16.6386C13.7326 16.3839 13.7907 16.1101 13.7942 15.833V15.4827L13.7852 15.4378ZM9.90561 15.3301H3.98739C3.9312 15.3301 3.87557 15.3189 3.82376 15.2971C3.77196 15.2753 3.72502 15.2434 3.68571 15.2033C3.64639 15.1631 3.61549 15.1155 3.59482 15.0633C3.57414 15.011 3.56411 14.9552 3.5653 14.899C3.56499 14.845 3.57602 14.7915 3.59767 14.742C3.61933 14.6925 3.65114 14.6481 3.69103 14.6116L5.86434 12.4473C6.1519 12.1718 6.53477 12.0179 6.93303 12.0179C7.33129 12.0179 7.71417 12.1718 8.00172 12.4473L10.175 14.6386C10.2147 14.6771 10.2462 14.7231 10.2677 14.774C10.2892 14.825 10.3003 14.8797 10.3003 14.9349C10.3003 14.9902 10.2892 15.0449 10.2677 15.0958C10.2462 15.1467 10.2147 15.1928 10.175 15.2313C10.0965 15.2892 10.003 15.3235 9.90561 15.3301V15.3301Z" fill="#F5F5F5"/>
</svg>
