<svg width="24" height="24" viewBox="0 0 24 24" fill="none" xmlns="http://www.w3.org/2000/svg">
<path d="M20.9979 8.96318H19.4689C19.1964 8.2789 18.8258 7.63787 18.3689 7.06019L19.1169 5.7622C19.3845 5.29346 19.4561 4.73795 19.316 4.21668C19.1759 3.69541 18.8355 3.25063 18.3689 2.97922L16.5759 1.94523C16.3442 1.81125 16.0883 1.72431 15.8228 1.6894C15.5574 1.65448 15.2877 1.67228 15.0292 1.74176C14.7707 1.81124 14.5284 1.93105 14.3163 2.09432C14.1041 2.25759 13.9263 2.46111 13.7929 2.69322L13.0339 4.01321C12.6915 3.96162 12.3462 3.93222 12 3.92521C11.654 3.92858 11.3086 3.9543 10.966 4.00221L10.229 2.69322C9.96336 2.22366 9.52217 1.87879 9.00237 1.7344C8.48258 1.59001 7.92672 1.65793 7.45699 1.92323L5.653 2.94622C5.18344 3.21183 4.83857 3.65302 4.69418 4.17282C4.54979 4.69261 4.61771 5.24847 4.883 5.7182L5.631 7.04919C5.18057 7.62329 4.8105 8.25612 4.53101 8.93018H3.04602C2.77798 8.92578 2.51176 8.97496 2.26298 9.07485C2.0142 9.17473 1.78789 9.32329 1.5973 9.51182C1.40672 9.70036 1.25572 9.92506 1.15315 10.1727C1.05059 10.4204 0.998531 10.6861 1.00003 10.9542L1.00003 13.0222C0.998583 13.2894 1.04979 13.5543 1.15072 13.8017C1.25165 14.0492 1.40033 14.2743 1.58828 14.4643C1.77622 14.6543 1.99975 14.8054 2.24609 14.909C2.49244 15.0126 2.75678 15.0667 3.02402 15.0681H4.53101C4.80665 15.7441 5.17702 16.3774 5.631 16.9491L4.872 18.2471C4.73828 18.478 4.65154 18.7331 4.61677 18.9977C4.582 19.2622 4.59989 19.5311 4.66941 19.7887C4.73893 20.0463 4.8587 20.2877 5.02184 20.4988C5.18498 20.71 5.38827 20.8868 5.62 21.0191L7.41299 22.0641C7.64474 22.1981 7.90066 22.285 8.16606 22.3199C8.43147 22.3548 8.70116 22.337 8.95969 22.2676C9.21821 22.1981 9.46048 22.0783 9.67262 21.915C9.88476 21.7517 10.0626 21.5482 10.196 21.3161L10.955 19.9961C11.3007 20.0494 11.6501 20.0752 12 20.0731C12.3679 20.0702 12.7352 20.0445 13.0999 19.9961L13.8479 21.2941C13.9802 21.5258 14.1571 21.7291 14.3682 21.8922C14.5794 22.0554 14.8207 22.1752 15.0783 22.2447C15.336 22.3142 15.6048 22.3321 15.8694 22.2973C16.1339 22.2626 16.389 22.1758 16.6199 22.0421L18.4129 21.0081C18.6456 20.8767 18.8499 20.7006 19.0141 20.4898C19.1784 20.2791 19.2993 20.0379 19.3698 19.7802C19.4404 19.5225 19.4592 19.2534 19.4253 18.9884C19.3913 18.7234 19.3052 18.4677 19.1719 18.2361L18.4129 16.9161C18.854 16.3555 19.2235 15.7421 19.5129 15.0901H20.9979C21.5226 15.0764 22.0222 14.8625 22.3944 14.4924C22.7666 14.1222 22.9832 13.6238 22.9999 13.0992L22.9999 11.0202C23.0058 10.4823 22.7985 9.96403 22.4233 9.57857C22.0482 9.19312 21.5357 8.97187 20.9979 8.96318ZM11.989 15.5631C11.2814 15.5631 10.5898 15.3532 10.0017 14.9599C9.41353 14.5666 8.95532 14.0076 8.68507 13.3537C8.41481 12.6998 8.34466 11.9804 8.4835 11.2867C8.62233 10.5929 8.96391 9.9559 9.46498 9.45638C9.96605 8.95685 10.6041 8.61723 11.2983 8.48054C11.9925 8.34384 12.7116 8.41621 13.3647 8.68848C14.0177 8.96075 14.5753 9.42067 14.9668 10.01C15.3583 10.5994 15.5661 11.2916 15.5639 11.9992C15.5639 12.9454 15.1888 13.853 14.5207 14.5232C13.8527 15.1933 12.9462 15.5712 12 15.5741L11.989 15.5631Z" fill="#9A9CAE"/>
</svg>
