<svg width="24" height="24" viewBox="0 0 24 24" fill="none" xmlns="http://www.w3.org/2000/svg">
    <path d="M9.8 8.90015L7.24 21.8101C7.11 22.4201 7.59 23.0001 8.22 23.0001H8.3C8.77 23.0001 9.17 22.6801 9.28 22.2201L10.9 15.0001L13 17.0001L13 22.0001C13 22.5501 13.45 23.0001 14 23.0001C14.55 23.0001 15 22.5501 15 22.0001L15 16.3601C15 15.8101 14.78 15.2901 14.38 14.9101L12.9 13.5001L13.5 10.5001C14.57 11.7401 16.12 12.6301 17.86 12.9101C18.46 13.0001 19 12.5201 19 11.9101C19 11.4201 18.64 11.0101 18.15 10.9301C16.63 10.6801 15.37 9.78015 14.7 8.60015L13.7 7.00015C13.14 6.11015 12.02 5.75015 11.05 6.16015L7.22 7.78015C6.48 8.10015 6 8.82015 6 9.63015L6 12.0001C6 12.5501 6.45 13.0001 7 13.0001C7.55 13.0001 8 12.5501 8 12.0001L8 9.60015L9.8 8.90015Z" fill="#F5F5F5"/>
    <path d="M15.499 3.5C15.499 4.6 14.599 5.5 13.499 5.5C12.399 5.5 11.499 4.6 11.499 3.5C11.499 2.4 12.399 1.5 13.499 1.5C14.599 1.5 15.499 2.4 15.499 3.5Z" fill="#F5F5F5"/>
</svg>
