<svg width="160" height="160" viewBox="0 0 160 160" fill="none" xmlns="http://www.w3.org/2000/svg">
<path d="M147.048 103.28V56.7202C147.056 52.015 145.822 47.3911 143.469 43.3162C141.117 39.2413 137.73 35.8597 133.652 33.5136L93.3878 10.2338C89.3098 7.89641 84.6912 6.66663 79.9909 6.66663C75.2906 6.66663 70.672 7.89641 66.594 10.2338L26.3302 33.5136C22.2517 35.8597 18.865 39.2413 16.5126 43.3162C14.1602 47.3911 12.9255 52.015 12.9334 56.7202V103.28C12.9255 107.985 14.1602 112.609 16.5126 116.684C18.865 120.759 22.2517 124.14 26.3302 126.486L66.594 149.766C70.672 152.104 75.2906 153.333 79.9909 153.333C84.6912 153.333 89.3098 152.104 93.3878 149.766L133.652 126.486C137.73 124.14 141.117 120.759 143.469 116.684C145.822 112.609 147.056 107.985 147.048 103.28ZM72.6702 77.0717C72.6702 75.1301 73.4415 73.2681 74.8144 71.8952C76.1873 70.5223 78.0493 69.751 79.9909 69.751C81.9325 69.751 83.7945 70.5223 85.1674 71.8952C86.5403 73.2681 87.3116 75.1301 87.3116 77.0717V111.186C87.3116 113.128 86.5403 114.99 85.1674 116.363C83.7945 117.735 81.9325 118.507 79.9909 118.507C78.0493 118.507 76.1873 117.735 74.8144 116.363C73.4415 114.99 72.6702 113.128 72.6702 111.186V77.0717ZM89.1418 50.7172C89.1273 52.5239 88.5784 54.2859 87.5641 55.7811C86.5499 57.2762 85.1157 58.4377 83.4424 59.1191C81.769 59.8005 79.9314 59.9713 78.1612 59.61C76.391 59.2487 74.7673 58.3714 73.4948 57.0888C72.2224 55.8062 71.3581 54.1756 71.0109 52.4025C70.6637 50.6294 70.8491 48.7933 71.5438 47.1254C72.2385 45.4576 73.4114 44.0327 74.9146 43.0304C76.4179 42.0281 78.1842 41.4932 79.9909 41.4931C81.1988 41.4931 82.3947 41.7322 83.5098 42.1966C84.6248 42.6611 85.6369 43.3417 86.4876 44.1992C87.3383 45.0567 88.0108 46.0741 88.4663 47.1928C88.9219 48.3115 89.1514 49.5094 89.1418 50.7172Z" fill="#E42855"/>
</svg>
