<svg width="1366" height="1023" viewBox="0 0 1366 1023" fill="none" xmlns="http://www.w3.org/2000/svg">
<path d="M0 -357.242V1008.76" stroke="#B3B3B3" stroke-opacity="0.5"/>
<path d="M71.8953 -357.242V1008.76" stroke="#B3B3B3" stroke-opacity="0.5"/>
<path d="M143.79 -357.242V1008.76" stroke="#B3B3B3" stroke-opacity="0.5"/>
<path d="M215.684 -357.242V1008.76" stroke="#B3B3B3" stroke-opacity="0.5"/>
<path d="M287.58 -357.242V1008.76" stroke="#B3B3B3" stroke-opacity="0.5"/>
<path d="M359.474 -357.242V1008.76" stroke="#B3B3B3" stroke-opacity="0.5"/>
<path d="M431.369 -357.242V1008.76" stroke="#B3B3B3" stroke-opacity="0.5"/>
<path d="M503.263 -357.242V1008.76" stroke="#B3B3B3" stroke-opacity="0.5"/>
<path d="M575.158 -357.242V1008.76" stroke="#B3B3B3" stroke-opacity="0.5"/>
<path d="M647.053 -357.242V1008.76" stroke="#B3B3B3" stroke-opacity="0.5"/>
<path d="M718.947 -357.242V1008.76" stroke="#B3B3B3" stroke-opacity="0.5"/>
<path d="M790.843 -357.242V1008.76" stroke="#B3B3B3" stroke-opacity="0.5"/>
<path d="M862.737 -357.242V1008.76" stroke="#B3B3B3" stroke-opacity="0.5"/>
<path d="M934.632 -357.242V1008.76" stroke="#B3B3B3" stroke-opacity="0.5"/>
<path d="M1006.53 -357.242V1008.76" stroke="#B3B3B3" stroke-opacity="0.5"/>
<path d="M1078.42 -357.242V1008.76" stroke="#B3B3B3" stroke-opacity="0.5"/>
<path d="M1150.32 -357.242V1008.76" stroke="#B3B3B3" stroke-opacity="0.5"/>
<path d="M1222.21 -357.242V1008.76" stroke="#B3B3B3" stroke-opacity="0.5"/>
<path d="M1294.11 -357.242V1008.76" stroke="#B3B3B3" stroke-opacity="0.5"/>
<path d="M1366 -357.242V1008.76" stroke="#B3B3B3" stroke-opacity="0.5"/>
<path d="M0 2.23438H1366" stroke="#B3B3B3" stroke-opacity="0.5"/>
<path d="M0 74.1211H1366" stroke="#B3B3B3" stroke-opacity="0.5"/>
<path d="M0 146.016H1366" stroke="#B3B3B3" stroke-opacity="0.5"/>
<path d="M0 217.914H1366" stroke="#B3B3B3" stroke-opacity="0.5"/>
<path d="M0 289.807H1366" stroke="#B3B3B3" stroke-opacity="0.5"/>
<path d="M0 361.701H1366" stroke="#B3B3B3" stroke-opacity="0.5"/>
<path d="M0 433.596H1366" stroke="#B3B3B3" stroke-opacity="0.5"/>
<path d="M0 505.492H1366" stroke="#B3B3B3" stroke-opacity="0.5"/>
<path d="M0 577.387H1366" stroke="#B3B3B3" stroke-opacity="0.5"/>
<path d="M0 649.281H1366" stroke="#B3B3B3" stroke-opacity="0.5"/>
<path d="M0 721.178H1366" stroke="#B3B3B3" stroke-opacity="0.5"/>
<path d="M0 793.072H1366" stroke="#B3B3B3" stroke-opacity="0.5"/>
<path d="M0 864.969H1366" stroke="#B3B3B3" stroke-opacity="0.5"/>
<path d="M0 936.863H1366" stroke="#B3B3B3" stroke-opacity="0.5"/>
<path d="M0 1008.76H1366" stroke="#B3B3B3" stroke-opacity="0.5"/>
<rect x="1366" y="1023" width="1366" height="1385" transform="rotate(180 1366 1023)" fill="url(#paint0_linear_1529_5306)"/>
<defs>
<linearGradient id="paint0_linear_1529_5306" x1="2049" y1="1023" x2="2049" y2="2408" gradientUnits="userSpaceOnUse">
<stop stop-color="#0D0E12"/>
<stop offset="1" stop-color="#0D0E12" stop-opacity="0.75"/>
</linearGradient>
</defs>
</svg>
